<?xml version="1.0" encoding="utf-8"?>
<svg version="1.1" xmlns:xlink="http://www.w3.org/1999/xlink" width="13px" height="13px" viewBox="725 108  13 13" xmlns="http://www.w3.org/2000/svg">
  <path d="M 731.5 109  C 734.58 109  737 111.42  737 114.5  C 737 117.58  734.58 120  731.5 120  C 728.42 120  726 117.58  726 114.5  C 726 111.42  728.42 109  731.5 109  Z " fill-rule="nonzero" fill="#ffffff" stroke="none" />
  <path d="M 731.5 109  C 734.58 109  737 111.42  737 114.5  C 737 117.58  734.58 120  731.5 120  C 728.42 120  726 117.58  726 114.5  C 726 111.42  728.42 109  731.5 109  Z " stroke-width="2" stroke="#0099cc" fill="none" />
  <path d="M 731.5 117.75  C 729.68 117.75  728.25 116.32  728.25 114.5  C 728.25 112.68  729.68 111.25  731.5 111.25  C 733.32 111.25  734.75 112.68  734.75 114.5  C 734.75 116.32  733.32 117.75  731.5 117.75  " fill-rule="nonzero" fill="#0099cc" stroke="none" />
</svg>