<?xml version="1.0" encoding="utf-8"?>
<svg version="1.1" xmlns:xlink="http://www.w3.org/1999/xlink" width="13px" height="13px" viewBox="773 243  13 13" xmlns="http://www.w3.org/2000/svg">
  <path d="M 779.5 244  C 782.58 244  785 246.42  785 249.5  C 785 252.58  782.58 255  779.5 255  C 776.42 255  774 252.58  774 249.5  C 774 246.42  776.42 244  779.5 244  Z " fill-rule="nonzero" fill="#ffffff" stroke="none" />
  <path d="M 779.5 244  C 782.58 244  785 246.42  785 249.5  C 785 252.58  782.58 255  779.5 255  C 776.42 255  774 252.58  774 249.5  C 774 246.42  776.42 244  779.5 244  Z " stroke-width="2" stroke="#0099cc" fill="none" />
  <path d="M 779.5 252.75  C 777.68 252.75  776.25 251.32  776.25 249.5  C 776.25 247.68  777.68 246.25  779.5 246.25  C 781.32 246.25  782.75 247.68  782.75 249.5  C 782.75 251.32  781.32 252.75  779.5 252.75  " fill-rule="nonzero" fill="#0099cc" stroke="none" />
</svg>