<?xml version="1.0" encoding="utf-8"?>
<svg version="1.1" xmlns:xlink="http://www.w3.org/1999/xlink" width="13px" height="13px" viewBox="1112 243  13 13" xmlns="http://www.w3.org/2000/svg">
  <path d="M 1118.5 244  C 1121.58 244  1124 246.42  1124 249.5  C 1124 252.58  1121.58 255  1118.5 255  C 1115.42 255  1113 252.58  1113 249.5  C 1113 246.42  1115.42 244  1118.5 244  Z " fill-rule="nonzero" fill="#ffffff" stroke="none" />
  <path d="M 1118.5 244  C 1121.58 244  1124 246.42  1124 249.5  C 1124 252.58  1121.58 255  1118.5 255  C 1115.42 255  1113 252.58  1113 249.5  C 1113 246.42  1115.42 244  1118.5 244  Z " stroke-width="2" stroke="#0099cc" fill="none" />
  <path d="M 1118.5 252.75  C 1116.68 252.75  1115.25 251.32  1115.25 249.5  C 1115.25 247.68  1116.68 246.25  1118.5 246.25  C 1120.32 246.25  1121.75 247.68  1121.75 249.5  C 1121.75 251.32  1120.32 252.75  1118.5 252.75  " fill-rule="nonzero" fill="#0099cc" stroke="none" />
</svg>