<?xml version="1.0" encoding="utf-8"?>
<svg version="1.1" xmlns:xlink="http://www.w3.org/1999/xlink" width="13px" height="13px" viewBox="1030 243  13 13" xmlns="http://www.w3.org/2000/svg">
  <path d="M 1036.5 244  C 1039.58 244  1042 246.42  1042 249.5  C 1042 252.58  1039.58 255  1036.5 255  C 1033.42 255  1031 252.58  1031 249.5  C 1031 246.42  1033.42 244  1036.5 244  Z " fill-rule="nonzero" fill="#f0f0f0" stroke="none" />
  <path d="M 1036.5 244  C 1039.58 244  1042 246.42  1042 249.5  C 1042 252.58  1039.58 255  1036.5 255  C 1033.42 255  1031 252.58  1031 249.5  C 1031 246.42  1033.42 244  1036.5 244  Z " stroke-width="2" stroke="#0099cc" fill="none" />
  <path d="M 1036.5 252.75  C 1034.68 252.75  1033.25 251.32  1033.25 249.5  C 1033.25 247.68  1034.68 246.25  1036.5 246.25  C 1038.32 246.25  1039.75 247.68  1039.75 249.5  C 1039.75 251.32  1038.32 252.75  1036.5 252.75  " fill-rule="nonzero" fill="#0099cc" stroke="none" />
</svg>