<?xml version="1.0" encoding="utf-8"?>
<svg version="1.1" xmlns:xlink="http://www.w3.org/1999/xlink" width="13px" height="13px" viewBox="723 573  13 13" xmlns="http://www.w3.org/2000/svg">
  <path d="M 729.5 574  C 732.58 574  735 576.42  735 579.5  C 735 582.58  732.58 585  729.5 585  C 726.42 585  724 582.58  724 579.5  C 724 576.42  726.42 574  729.5 574  Z " fill-rule="nonzero" fill="#f0f0f0" stroke="none" />
  <path d="M 729.5 574  C 732.58 574  735 576.42  735 579.5  C 735 582.58  732.58 585  729.5 585  C 726.42 585  724 582.58  724 579.5  C 724 576.42  726.42 574  729.5 574  Z " stroke-width="2" stroke="#0099cc" fill="none" />
  <path d="M 729.5 582.75  C 727.68 582.75  726.25 581.32  726.25 579.5  C 726.25 577.68  727.68 576.25  729.5 576.25  C 731.32 576.25  732.75 577.68  732.75 579.5  C 732.75 581.32  731.32 582.75  729.5 582.75  " fill-rule="nonzero" fill="#0099cc" stroke="none" />
</svg>