<?xml version="1.0" encoding="utf-8"?>
<svg version="1.1" xmlns:xlink="http://www.w3.org/1999/xlink" width="13px" height="13px" viewBox="670 108  13 13" xmlns="http://www.w3.org/2000/svg">
  <path d="M 676.5 109  C 679.58 109  682 111.42  682 114.5  C 682 117.58  679.58 120  676.5 120  C 673.42 120  671 117.58  671 114.5  C 671 111.42  673.42 109  676.5 109  Z " fill-rule="nonzero" fill="#ffffff" stroke="none" />
  <path d="M 676.5 109  C 679.58 109  682 111.42  682 114.5  C 682 117.58  679.58 120  676.5 120  C 673.42 120  671 117.58  671 114.5  C 671 111.42  673.42 109  676.5 109  Z " stroke-width="2" stroke="#0099cc" fill="none" />
  <path d="M 676.5 117.75  C 674.68 117.75  673.25 116.32  673.25 114.5  C 673.25 112.68  674.68 111.25  676.5 111.25  C 678.32 111.25  679.75 112.68  679.75 114.5  C 679.75 116.32  678.32 117.75  676.5 117.75  " fill-rule="nonzero" fill="#0099cc" stroke="none" />
</svg>