<?xml version="1.0" encoding="utf-8"?>
<svg version="1.1" xmlns:xlink="http://www.w3.org/1999/xlink" width="13px" height="13px" viewBox="725 172  13 13" xmlns="http://www.w3.org/2000/svg">
  <path d="M 731.5 173  C 734.58 173  737 175.42  737 178.5  C 737 181.58  734.58 184  731.5 184  C 728.42 184  726 181.58  726 178.5  C 726 175.42  728.42 173  731.5 173  Z " fill-rule="nonzero" fill="#f0f0f0" stroke="none" />
  <path d="M 731.5 173  C 734.58 173  737 175.42  737 178.5  C 737 181.58  734.58 184  731.5 184  C 728.42 184  726 181.58  726 178.5  C 726 175.42  728.42 173  731.5 173  Z " stroke-width="2" stroke="#0099cc" fill="none" />
  <path d="M 731.5 181.75  C 729.68 181.75  728.25 180.32  728.25 178.5  C 728.25 176.68  729.68 175.25  731.5 175.25  C 733.32 175.25  734.75 176.68  734.75 178.5  C 734.75 180.32  733.32 181.75  731.5 181.75  " fill-rule="nonzero" fill="#0099cc" stroke="none" />
</svg>