<?xml version="1.0" encoding="utf-8"?>
<svg version="1.1" xmlns:xlink="http://www.w3.org/1999/xlink" width="13px" height="13px" viewBox="670 178  13 13" xmlns="http://www.w3.org/2000/svg">
  <path d="M 676.5 179  C 679.58 179  682 181.42  682 184.5  C 682 187.58  679.58 190  676.5 190  C 673.42 190  671 187.58  671 184.5  C 671 181.42  673.42 179  676.5 179  Z " fill-rule="nonzero" fill="#ffffff" stroke="none" />
  <path d="M 676.5 179  C 679.58 179  682 181.42  682 184.5  C 682 187.58  679.58 190  676.5 190  C 673.42 190  671 187.58  671 184.5  C 671 181.42  673.42 179  676.5 179  Z " stroke-width="2" stroke="#0099cc" fill="none" />
  <path d="M 676.5 187.75  C 674.68 187.75  673.25 186.32  673.25 184.5  C 673.25 182.68  674.68 181.25  676.5 181.25  C 678.32 181.25  679.75 182.68  679.75 184.5  C 679.75 186.32  678.32 187.75  676.5 187.75  " fill-rule="nonzero" fill="#0099cc" stroke="none" />
</svg>