<?xml version="1.0" encoding="utf-8"?>
<svg version="1.1" xmlns:xlink="http://www.w3.org/1999/xlink" width="13px" height="13px" viewBox="680 243  13 13" xmlns="http://www.w3.org/2000/svg">
  <path d="M 686.5 244  C 689.58 244  692 246.42  692 249.5  C 692 252.58  689.58 255  686.5 255  C 683.42 255  681 252.58  681 249.5  C 681 246.42  683.42 244  686.5 244  Z " fill-rule="nonzero" fill="#ffffff" stroke="none" />
  <path d="M 686.5 244  C 689.58 244  692 246.42  692 249.5  C 692 252.58  689.58 255  686.5 255  C 683.42 255  681 252.58  681 249.5  C 681 246.42  683.42 244  686.5 244  Z " stroke-width="2" stroke="#0099cc" fill="none" />
  <path d="M 686.5 252.75  C 684.68 252.75  683.25 251.32  683.25 249.5  C 683.25 247.68  684.68 246.25  686.5 246.25  C 688.32 246.25  689.75 247.68  689.75 249.5  C 689.75 251.32  688.32 252.75  686.5 252.75  " fill-rule="nonzero" fill="#0099cc" stroke="none" />
</svg>