<?xml version="1.0" encoding="utf-8"?>
<svg version="1.1" xmlns:xlink="http://www.w3.org/1999/xlink" width="13px" height="13px" viewBox="670 249  13 13" xmlns="http://www.w3.org/2000/svg">
  <path d="M 676.5 250  C 679.58 250  682 252.42  682 255.5  C 682 258.58  679.58 261  676.5 261  C 673.42 261  671 258.58  671 255.5  C 671 252.42  673.42 250  676.5 250  Z " fill-rule="nonzero" fill="#f0f0f0" stroke="none" />
  <path d="M 676.5 250  C 679.58 250  682 252.42  682 255.5  C 682 258.58  679.58 261  676.5 261  C 673.42 261  671 258.58  671 255.5  C 671 252.42  673.42 250  676.5 250  Z " stroke-width="2" stroke="#0099cc" fill="none" />
  <path d="M 676.5 258.75  C 674.68 258.75  673.25 257.32  673.25 255.5  C 673.25 253.68  674.68 252.25  676.5 252.25  C 678.32 252.25  679.75 253.68  679.75 255.5  C 679.75 257.32  678.32 258.75  676.5 258.75  " fill-rule="nonzero" fill="#0099cc" stroke="none" />
</svg>