<?xml version="1.0" encoding="utf-8"?>
<svg version="1.1" xmlns:xlink="http://www.w3.org/1999/xlink" width="13px" height="13px" viewBox="763 249  13 13" xmlns="http://www.w3.org/2000/svg">
  <path d="M 769.5 250  C 772.58 250  775 252.42  775 255.5  C 775 258.58  772.58 261  769.5 261  C 766.42 261  764 258.58  764 255.5  C 764 252.42  766.42 250  769.5 250  Z " fill-rule="nonzero" fill="#ffffff" stroke="none" />
  <path d="M 769.5 250  C 772.58 250  775 252.42  775 255.5  C 775 258.58  772.58 261  769.5 261  C 766.42 261  764 258.58  764 255.5  C 764 252.42  766.42 250  769.5 250  Z " stroke-width="2" stroke="#0099cc" fill="none" />
  <path d="M 769.5 258.75  C 767.68 258.75  766.25 257.32  766.25 255.5  C 766.25 253.68  767.68 252.25  769.5 252.25  C 771.32 252.25  772.75 253.68  772.75 255.5  C 772.75 257.32  771.32 258.75  769.5 258.75  " fill-rule="nonzero" fill="#0099cc" stroke="none" />
</svg>