<?xml version="1.0" encoding="utf-8"?>
<svg version="1.1" xmlns:xlink="http://www.w3.org/1999/xlink" width="13px" height="13px" viewBox="849 249  13 13" xmlns="http://www.w3.org/2000/svg">
  <path d="M 855.5 250  C 858.58 250  861 252.42  861 255.5  C 861 258.58  858.58 261  855.5 261  C 852.42 261  850 258.58  850 255.5  C 850 252.42  852.42 250  855.5 250  Z " fill-rule="nonzero" fill="#f0f0f0" stroke="none" />
  <path d="M 855.5 250  C 858.58 250  861 252.42  861 255.5  C 861 258.58  858.58 261  855.5 261  C 852.42 261  850 258.58  850 255.5  C 850 252.42  852.42 250  855.5 250  Z " stroke-width="2" stroke="#0099cc" fill="none" />
  <path d="M 855.5 258.75  C 853.68 258.75  852.25 257.32  852.25 255.5  C 852.25 253.68  853.68 252.25  855.5 252.25  C 857.32 252.25  858.75 253.68  858.75 255.5  C 858.75 257.32  857.32 258.75  855.5 258.75  " fill-rule="nonzero" fill="#0099cc" stroke="none" />
</svg>