<?xml version="1.0" encoding="utf-8"?>
<svg version="1.1" xmlns:xlink="http://www.w3.org/1999/xlink" width="13px" height="13px" viewBox="943 243  13 13" xmlns="http://www.w3.org/2000/svg">
  <path d="M 949.5 244  C 952.58 244  955 246.42  955 249.5  C 955 252.58  952.58 255  949.5 255  C 946.42 255  944 252.58  944 249.5  C 944 246.42  946.42 244  949.5 244  Z " fill-rule="nonzero" fill="#ffffff" stroke="none" />
  <path d="M 949.5 244  C 952.58 244  955 246.42  955 249.5  C 955 252.58  952.58 255  949.5 255  C 946.42 255  944 252.58  944 249.5  C 944 246.42  946.42 244  949.5 244  Z " stroke-width="2" stroke="#0099cc" fill="none" />
  <path d="M 949.5 252.75  C 947.68 252.75  946.25 251.32  946.25 249.5  C 946.25 247.68  947.68 246.25  949.5 246.25  C 951.32 246.25  952.75 247.68  952.75 249.5  C 952.75 251.32  951.32 252.75  949.5 252.75  " fill-rule="nonzero" fill="#0099cc" stroke="none" />
</svg>