<?xml version="1.0" encoding="utf-8"?>
<svg version="1.1" xmlns:xlink="http://www.w3.org/1999/xlink" width="13px" height="13px" viewBox="933 249  13 13" xmlns="http://www.w3.org/2000/svg">
  <path d="M 939.5 250  C 942.58 250  945 252.42  945 255.5  C 945 258.58  942.58 261  939.5 261  C 936.42 261  934 258.58  934 255.5  C 934 252.42  936.42 250  939.5 250  Z " fill-rule="nonzero" fill="#ffffff" stroke="none" />
  <path d="M 939.5 250  C 942.58 250  945 252.42  945 255.5  C 945 258.58  942.58 261  939.5 261  C 936.42 261  934 258.58  934 255.5  C 934 252.42  936.42 250  939.5 250  Z " stroke-width="2" stroke="#0099cc" fill="none" />
  <path d="M 939.5 258.75  C 937.68 258.75  936.25 257.32  936.25 255.5  C 936.25 253.68  937.68 252.25  939.5 252.25  C 941.32 252.25  942.75 253.68  942.75 255.5  C 942.75 257.32  941.32 258.75  939.5 258.75  " fill-rule="nonzero" fill="#0099cc" stroke="none" />
</svg>