<?xml version="1.0" encoding="utf-8"?>
<svg version="1.1" xmlns:xlink="http://www.w3.org/1999/xlink" width="13px" height="13px" viewBox="1020 249  13 13" xmlns="http://www.w3.org/2000/svg">
  <path d="M 1026.5 250  C 1029.58 250  1032 252.42  1032 255.5  C 1032 258.58  1029.58 261  1026.5 261  C 1023.42 261  1021 258.58  1021 255.5  C 1021 252.42  1023.42 250  1026.5 250  Z " fill-rule="nonzero" fill="#f0f0f0" stroke="none" />
  <path d="M 1026.5 250  C 1029.58 250  1032 252.42  1032 255.5  C 1032 258.58  1029.58 261  1026.5 261  C 1023.42 261  1021 258.58  1021 255.5  C 1021 252.42  1023.42 250  1026.5 250  Z " stroke-width="2" stroke="#0099cc" fill="none" />
  <path d="M 1026.5 258.75  C 1024.68 258.75  1023.25 257.32  1023.25 255.5  C 1023.25 253.68  1024.68 252.25  1026.5 252.25  C 1028.32 252.25  1029.75 253.68  1029.75 255.5  C 1029.75 257.32  1028.32 258.75  1026.5 258.75  " fill-rule="nonzero" fill="#0099cc" stroke="none" />
</svg>