<?xml version="1.0" encoding="utf-8"?>
<svg version="1.1" xmlns:xlink="http://www.w3.org/1999/xlink" width="13px" height="13px" viewBox="1097 249  13 13" xmlns="http://www.w3.org/2000/svg">
  <path d="M 1103.5 250  C 1106.58 250  1109 252.42  1109 255.5  C 1109 258.58  1106.58 261  1103.5 261  C 1100.42 261  1098 258.58  1098 255.5  C 1098 252.42  1100.42 250  1103.5 250  Z " fill-rule="nonzero" fill="#f0f0f0" stroke="none" />
  <path d="M 1103.5 250  C 1106.58 250  1109 252.42  1109 255.5  C 1109 258.58  1106.58 261  1103.5 261  C 1100.42 261  1098 258.58  1098 255.5  C 1098 252.42  1100.42 250  1103.5 250  Z " stroke-width="2" stroke="#0099cc" fill="none" />
  <path d="M 1103.5 258.75  C 1101.68 258.75  1100.25 257.32  1100.25 255.5  C 1100.25 253.68  1101.68 252.25  1103.5 252.25  C 1105.32 252.25  1106.75 253.68  1106.75 255.5  C 1106.75 257.32  1105.32 258.75  1103.5 258.75  " fill-rule="nonzero" fill="#0099cc" stroke="none" />
</svg>