<?xml version="1.0" encoding="utf-8"?>
<svg version="1.1" xmlns:xlink="http://www.w3.org/1999/xlink" width="13px" height="13px" viewBox="670 310  13 13" xmlns="http://www.w3.org/2000/svg">
  <path d="M 676.5 311  C 679.58 311  682 313.42  682 316.5  C 682 319.58  679.58 322  676.5 322  C 673.42 322  671 319.58  671 316.5  C 671 313.42  673.42 311  676.5 311  Z " fill-rule="nonzero" fill="#ffffff" stroke="none" />
  <path d="M 676.5 311  C 679.58 311  682 313.42  682 316.5  C 682 319.58  679.58 322  676.5 322  C 673.42 322  671 319.58  671 316.5  C 671 313.42  673.42 311  676.5 311  Z " stroke-width="2" stroke="#0099cc" fill="none" />
  <path d="M 676.5 319.75  C 674.68 319.75  673.25 318.32  673.25 316.5  C 673.25 314.68  674.68 313.25  676.5 313.25  C 678.32 313.25  679.75 314.68  679.75 316.5  C 679.75 318.32  678.32 319.75  676.5 319.75  " fill-rule="nonzero" fill="#0099cc" stroke="none" />
</svg>