<?xml version="1.0" encoding="utf-8"?>
<svg version="1.1" xmlns:xlink="http://www.w3.org/1999/xlink" width="13px" height="13px" viewBox="670 384  13 13" xmlns="http://www.w3.org/2000/svg">
  <path d="M 676.5 385  C 679.58 385  682 387.42  682 390.5  C 682 393.58  679.58 396  676.5 396  C 673.42 396  671 393.58  671 390.5  C 671 387.42  673.42 385  676.5 385  Z " fill-rule="nonzero" fill="#f0f0f0" stroke="none" />
  <path d="M 676.5 385  C 679.58 385  682 387.42  682 390.5  C 682 393.58  679.58 396  676.5 396  C 673.42 396  671 393.58  671 390.5  C 671 387.42  673.42 385  676.5 385  Z " stroke-width="2" stroke="#0099cc" fill="none" />
  <path d="M 676.5 393.75  C 674.68 393.75  673.25 392.32  673.25 390.5  C 673.25 388.68  674.68 387.25  676.5 387.25  C 678.32 387.25  679.75 388.68  679.75 390.5  C 679.75 392.32  678.32 393.75  676.5 393.75  " fill-rule="nonzero" fill="#0099cc" stroke="none" />
</svg>