<?xml version="1.0" encoding="utf-8"?>
<svg version="1.1" xmlns:xlink="http://www.w3.org/1999/xlink" width="13px" height="13px" viewBox="683 579  13 13" xmlns="http://www.w3.org/2000/svg">
  <path d="M 689.5 580  C 692.58 580  695 582.42  695 585.5  C 695 588.58  692.58 591  689.5 591  C 686.42 591  684 588.58  684 585.5  C 684 582.42  686.42 580  689.5 580  Z " fill-rule="nonzero" fill="#ffffff" stroke="none" />
  <path d="M 689.5 580  C 692.58 580  695 582.42  695 585.5  C 695 588.58  692.58 591  689.5 591  C 686.42 591  684 588.58  684 585.5  C 684 582.42  686.42 580  689.5 580  Z " stroke-width="2" stroke="#0099cc" fill="none" />
  <path d="M 689.5 588.75  C 687.68 588.75  686.25 587.32  686.25 585.5  C 686.25 583.68  687.68 582.25  689.5 582.25  C 691.32 582.25  692.75 583.68  692.75 585.5  C 692.75 587.32  691.32 588.75  689.5 588.75  " fill-rule="nonzero" fill="#0099cc" stroke="none" />
</svg>