<?xml version="1.0" encoding="utf-8"?>
<svg version="1.1" xmlns:xlink="http://www.w3.org/1999/xlink" width="13px" height="13px" viewBox="602 899  13 13" xmlns="http://www.w3.org/2000/svg">
  <path d="M 608.5 900  C 611.58 900  614 902.42  614 905.5  C 614 908.58  611.58 911  608.5 911  C 605.42 911  603 908.58  603 905.5  C 603 902.42  605.42 900  608.5 900  Z " fill-rule="nonzero" fill="#ffffff" stroke="none" />
  <path d="M 608.5 900  C 611.58 900  614 902.42  614 905.5  C 614 908.58  611.58 911  608.5 911  C 605.42 911  603 908.58  603 905.5  C 603 902.42  605.42 900  608.5 900  Z " stroke-width="2" stroke="#0099cc" fill="none" />
  <path d="M 608.5 908.75  C 606.68 908.75  605.25 907.32  605.25 905.5  C 605.25 903.68  606.68 902.25  608.5 902.25  C 610.32 902.25  611.75 903.68  611.75 905.5  C 611.75 907.32  610.32 908.75  608.5 908.75  " fill-rule="nonzero" fill="#0099cc" stroke="none" />
</svg>