<?xml version="1.0" encoding="utf-8"?>
<svg version="1.1" xmlns:xlink="http://www.w3.org/1999/xlink" width="13px" height="13px" viewBox="859 243  13 13" xmlns="http://www.w3.org/2000/svg">
  <path d="M 865.5 244  C 868.58 244  871 246.42  871 249.5  C 871 252.58  868.58 255  865.5 255  C 862.42 255  860 252.58  860 249.5  C 860 246.42  862.42 244  865.5 244  Z " fill-rule="nonzero" fill="#ffffff" stroke="none" />
  <path d="M 865.5 244  C 868.58 244  871 246.42  871 249.5  C 871 252.58  868.58 255  865.5 255  C 862.42 255  860 252.58  860 249.5  C 860 246.42  862.42 244  865.5 244  Z " stroke-width="2" stroke="#0099cc" fill="none" />
  <path d="M 865.5 252.75  C 863.68 252.75  862.25 251.32  862.25 249.5  C 862.25 247.68  863.68 246.25  865.5 246.25  C 867.32 246.25  868.75 247.68  868.75 249.5  C 868.75 251.32  867.32 252.75  865.5 252.75  " fill-rule="nonzero" fill="#0099cc" stroke="none" />
</svg>