<?xml version="1.0" encoding="utf-8"?>
<svg version="1.1" xmlns:xlink="http://www.w3.org/1999/xlink" width="13px" height="13px" viewBox="725 305  13 13" xmlns="http://www.w3.org/2000/svg">
  <path d="M 731.5 306  C 734.58 306  737 308.42  737 311.5  C 737 314.58  734.58 317  731.5 317  C 728.42 317  726 314.58  726 311.5  C 726 308.42  728.42 306  731.5 306  Z " fill-rule="nonzero" fill="#f0f0f0" stroke="none" />
  <path d="M 731.5 306  C 734.58 306  737 308.42  737 311.5  C 737 314.58  734.58 317  731.5 317  C 728.42 317  726 314.58  726 311.5  C 726 308.42  728.42 306  731.5 306  Z " stroke-width="2" stroke="#0099cc" fill="none" />
  <path d="M 731.5 314.75  C 729.68 314.75  728.25 313.32  728.25 311.5  C 728.25 309.68  729.68 308.25  731.5 308.25  C 733.32 308.25  734.75 309.68  734.75 311.5  C 734.75 313.32  733.32 314.75  731.5 314.75  " fill-rule="nonzero" fill="#0099cc" stroke="none" />
</svg>