<?xml version="1.0" encoding="utf-8"?>
<svg version="1.1" xmlns:xlink="http://www.w3.org/1999/xlink" width="13px" height="13px" viewBox="725 110  13 13" xmlns="http://www.w3.org/2000/svg">
  <path d="M 731.5 111  C 734.58 111  737 113.42  737 116.5  C 737 119.58  734.58 122  731.5 122  C 728.42 122  726 119.58  726 116.5  C 726 113.42  728.42 111  731.5 111  Z " fill-rule="nonzero" fill="#f0f0f0" stroke="none" />
  <path d="M 731.5 111  C 734.58 111  737 113.42  737 116.5  C 737 119.58  734.58 122  731.5 122  C 728.42 122  726 119.58  726 116.5  C 726 113.42  728.42 111  731.5 111  Z " stroke-width="2" stroke="#0099cc" fill="none" />
  <path d="M 731.5 119.75  C 729.68 119.75  728.25 118.32  728.25 116.5  C 728.25 114.68  729.68 113.25  731.5 113.25  C 733.32 113.25  734.75 114.68  734.75 116.5  C 734.75 118.32  733.32 119.75  731.5 119.75  " fill-rule="nonzero" fill="#0099cc" stroke="none" />
</svg>