<?xml version="1.0" encoding="utf-8"?>
<svg version="1.1" xmlns:xlink="http://www.w3.org/1999/xlink" width="13px" height="13px" viewBox="680 245  13 13" xmlns="http://www.w3.org/2000/svg">
  <path d="M 686.5 246  C 689.58 246  692 248.42  692 251.5  C 692 254.58  689.58 257  686.5 257  C 683.42 257  681 254.58  681 251.5  C 681 248.42  683.42 246  686.5 246  Z " fill-rule="nonzero" fill="#ffffff" stroke="none" />
  <path d="M 686.5 246  C 689.58 246  692 248.42  692 251.5  C 692 254.58  689.58 257  686.5 257  C 683.42 257  681 254.58  681 251.5  C 681 248.42  683.42 246  686.5 246  Z " stroke-width="2" stroke="#0099cc" fill="none" />
  <path d="M 686.5 254.75  C 684.68 254.75  683.25 253.32  683.25 251.5  C 683.25 249.68  684.68 248.25  686.5 248.25  C 688.32 248.25  689.75 249.68  689.75 251.5  C 689.75 253.32  688.32 254.75  686.5 254.75  " fill-rule="nonzero" fill="#0099cc" stroke="none" />
</svg>