<?xml version="1.0" encoding="utf-8"?>
<svg version="1.1" xmlns:xlink="http://www.w3.org/1999/xlink" width="13px" height="13px" viewBox="773 245  13 13" xmlns="http://www.w3.org/2000/svg">
  <path d="M 779.5 246  C 782.58 246  785 248.42  785 251.5  C 785 254.58  782.58 257  779.5 257  C 776.42 257  774 254.58  774 251.5  C 774 248.42  776.42 246  779.5 246  Z " fill-rule="nonzero" fill="#f0f0f0" stroke="none" />
  <path d="M 779.5 246  C 782.58 246  785 248.42  785 251.5  C 785 254.58  782.58 257  779.5 257  C 776.42 257  774 254.58  774 251.5  C 774 248.42  776.42 246  779.5 246  Z " stroke-width="2" stroke="#0099cc" fill="none" />
  <path d="M 779.5 254.75  C 777.68 254.75  776.25 253.32  776.25 251.5  C 776.25 249.68  777.68 248.25  779.5 248.25  C 781.32 248.25  782.75 249.68  782.75 251.5  C 782.75 253.32  781.32 254.75  779.5 254.75  " fill-rule="nonzero" fill="#0099cc" stroke="none" />
</svg>