<?xml version="1.0" encoding="utf-8"?>
<svg version="1.1" xmlns:xlink="http://www.w3.org/1999/xlink" width="13px" height="13px" viewBox="943 245  13 13" xmlns="http://www.w3.org/2000/svg">
  <path d="M 949.5 246  C 952.58 246  955 248.42  955 251.5  C 955 254.58  952.58 257  949.5 257  C 946.42 257  944 254.58  944 251.5  C 944 248.42  946.42 246  949.5 246  Z " fill-rule="nonzero" fill="#ffffff" stroke="none" />
  <path d="M 949.5 246  C 952.58 246  955 248.42  955 251.5  C 955 254.58  952.58 257  949.5 257  C 946.42 257  944 254.58  944 251.5  C 944 248.42  946.42 246  949.5 246  Z " stroke-width="2" stroke="#0099cc" fill="none" />
  <path d="M 949.5 254.75  C 947.68 254.75  946.25 253.32  946.25 251.5  C 946.25 249.68  947.68 248.25  949.5 248.25  C 951.32 248.25  952.75 249.68  952.75 251.5  C 952.75 253.32  951.32 254.75  949.5 254.75  " fill-rule="nonzero" fill="#0099cc" stroke="none" />
</svg>