<?xml version="1.0" encoding="utf-8"?>
<svg version="1.1" xmlns:xlink="http://www.w3.org/1999/xlink" width="13px" height="13px" viewBox="1112 245  13 13" xmlns="http://www.w3.org/2000/svg">
  <path d="M 1118.5 246  C 1121.58 246  1124 248.42  1124 251.5  C 1124 254.58  1121.58 257  1118.5 257  C 1115.42 257  1113 254.58  1113 251.5  C 1113 248.42  1115.42 246  1118.5 246  Z " fill-rule="nonzero" fill="#f0f0f0" stroke="none" />
  <path d="M 1118.5 246  C 1121.58 246  1124 248.42  1124 251.5  C 1124 254.58  1121.58 257  1118.5 257  C 1115.42 257  1113 254.58  1113 251.5  C 1113 248.42  1115.42 246  1118.5 246  Z " stroke-width="2" stroke="#0099cc" fill="none" />
  <path d="M 1118.5 254.75  C 1116.68 254.75  1115.25 253.32  1115.25 251.5  C 1115.25 249.68  1116.68 248.25  1118.5 248.25  C 1120.32 248.25  1121.75 249.68  1121.75 251.5  C 1121.75 253.32  1120.32 254.75  1118.5 254.75  " fill-rule="nonzero" fill="#0099cc" stroke="none" />
</svg>