<?xml version="1.0" encoding="utf-8"?>
<svg version="1.1" xmlns:xlink="http://www.w3.org/1999/xlink" width="13px" height="13px" viewBox="725 307  13 13" xmlns="http://www.w3.org/2000/svg">
  <path d="M 731.5 308  C 734.58 308  737 310.42  737 313.5  C 737 316.58  734.58 319  731.5 319  C 728.42 319  726 316.58  726 313.5  C 726 310.42  728.42 308  731.5 308  Z " fill-rule="nonzero" fill="#f0f0f0" stroke="none" />
  <path d="M 731.5 308  C 734.58 308  737 310.42  737 313.5  C 737 316.58  734.58 319  731.5 319  C 728.42 319  726 316.58  726 313.5  C 726 310.42  728.42 308  731.5 308  Z " stroke-width="2" stroke="#0099cc" fill="none" />
  <path d="M 731.5 316.75  C 729.68 316.75  728.25 315.32  728.25 313.5  C 728.25 311.68  729.68 310.25  731.5 310.25  C 733.32 310.25  734.75 311.68  734.75 313.5  C 734.75 315.32  733.32 316.75  731.5 316.75  " fill-rule="nonzero" fill="#0099cc" stroke="none" />
</svg>