<?xml version="1.0" encoding="utf-8"?>
<svg version="1.1" xmlns:xlink="http://www.w3.org/1999/xlink" width="13px" height="13px" viewBox="723 575  13 13" xmlns="http://www.w3.org/2000/svg">
  <path d="M 729.5 576  C 732.58 576  735 578.42  735 581.5  C 735 584.58  732.58 587  729.5 587  C 726.42 587  724 584.58  724 581.5  C 724 578.42  726.42 576  729.5 576  Z " fill-rule="nonzero" fill="#f0f0f0" stroke="none" />
  <path d="M 729.5 576  C 732.58 576  735 578.42  735 581.5  C 735 584.58  732.58 587  729.5 587  C 726.42 587  724 584.58  724 581.5  C 724 578.42  726.42 576  729.5 576  Z " stroke-width="2" stroke="#0099cc" fill="none" />
  <path d="M 729.5 584.75  C 727.68 584.75  726.25 583.32  726.25 581.5  C 726.25 579.68  727.68 578.25  729.5 578.25  C 731.32 578.25  732.75 579.68  732.75 581.5  C 732.75 583.32  731.32 584.75  729.5 584.75  " fill-rule="nonzero" fill="#0099cc" stroke="none" />
</svg>