<?xml version="1.0" encoding="utf-8"?>
<svg version="1.1" xmlns:xlink="http://www.w3.org/1999/xlink" width="13px" height="13px" viewBox="595 511.5  13 13" xmlns="http://www.w3.org/2000/svg">
  <path d="M 601.5 512.5  C 604.58 512.5  607 514.92  607 518  C 607 521.08  604.58 523.5  601.5 523.5  C 598.42 523.5  596 521.08  596 518  C 596 514.92  598.42 512.5  601.5 512.5  Z " fill-rule="nonzero" fill="#f0f0f0" stroke="none" />
  <path d="M 601.5 512.5  C 604.58 512.5  607 514.92  607 518  C 607 521.08  604.58 523.5  601.5 523.5  C 598.42 523.5  596 521.08  596 518  C 596 514.92  598.42 512.5  601.5 512.5  Z " stroke-width="2" stroke="#0099cc" fill="none" />
  <path d="M 601.5 521.25  C 599.68 521.25  598.25 519.82  598.25 518  C 598.25 516.18  599.68 514.75  601.5 514.75  C 603.32 514.75  604.75 516.18  604.75 518  C 604.75 519.82  603.32 521.25  601.5 521.25  " fill-rule="nonzero" fill="#0099cc" stroke="none" />
</svg>