<?xml version="1.0" encoding="utf-8"?>
<svg version="1.1" xmlns:xlink="http://www.w3.org/1999/xlink" width="13px" height="13px" viewBox="709 510  13 13" xmlns="http://www.w3.org/2000/svg">
  <path d="M 715.5 511  C 718.58 511  721 513.42  721 516.5  C 721 519.58  718.58 522  715.5 522  C 712.42 522  710 519.58  710 516.5  C 710 513.42  712.42 511  715.5 511  Z " fill-rule="nonzero" fill="#ffffff" stroke="none" />
  <path d="M 715.5 511  C 718.58 511  721 513.42  721 516.5  C 721 519.58  718.58 522  715.5 522  C 712.42 522  710 519.58  710 516.5  C 710 513.42  712.42 511  715.5 511  Z " stroke-width="2" stroke="#0099cc" fill="none" />
  <path d="M 715.5 519.75  C 713.68 519.75  712.25 518.32  712.25 516.5  C 712.25 514.68  713.68 513.25  715.5 513.25  C 717.32 513.25  718.75 514.68  718.75 516.5  C 718.75 518.32  717.32 519.75  715.5 519.75  " fill-rule="nonzero" fill="#0099cc" stroke="none" />
</svg>