<?xml version="1.0" encoding="utf-8"?>
<svg version="1.1" xmlns:xlink="http://www.w3.org/1999/xlink" width="112px" height="57px" xmlns="http://www.w3.org/2000/svg">
  <defs>
    <mask fill="white" id="clip53">
      <path d="M 65.67862733584411 57  L 7.603726050507702 57  C 4.545926611928962 57  1.9039770830859197 55.50345371990196  0.38166202546858585 53.20111269744193  C 2.751970715472453 46.947120815141446  5.543798658162132 40.836408103175486  8.73916833358453 34.95248215325994  C 11.64061808465317 29.43737170784921  15.295839496719735 24.336982042133283  19.603523403863164 19.792677020200763  C 24.182856594246005 15.220035616746042  28.79015189429265 12.902048423305066  33.296353413245924 12.902048423305066  C 44.76727117008522 12.902048423305066  55.66173928154058 27.7388553408854  65.67862733584411 57  Z M 111.14142676521487 53.85136573611981  C 109.5765226575927 55.78123844127782  107.15572881170124 57  104.39627392758143 57  L 65.67862733584411 57  C 67.5587285507163 53.50311398451627  69.82327684789266 50.18244309792261  72.40889203885354 47.1504147613674  C 74.5872425751736 44.54231331059551  77.14231203715235 42.26072715587488  79.9930765523759 40.37800773353626  C 82.83860867273052 38.450012620269796  86.19615665628362 37.380172681622646  89.65290997558327 37.300024738966925  C 97.11231248831109 37.300024738966925  104.32974889614184 42.86497763793489  111.14142676521487 53.85136573611981  Z M 67.82955884847092 6.334418041889277  C 67.82955884847092 2.836633951068159  70.7185733692886 0.0011196991545844234  74.28235338635159 0.0011196991545844234  C 77.84613340341457 0.0011196991545844234  80.73514792423225 2.836633951068159  80.73514792423225 6.334418041889277  C 80.73514792423225 9.832202132710396  77.84613340341457 12.667716384624235  74.28235338635159 12.667716384624235  C 70.7185733692886 12.667716384624235  67.82955884847092 9.832202132710396  67.82955884847092 6.334418041889277  Z " fill-rule="evenodd" />
    </mask>
  </defs>
  <g transform="matrix(1 0 0 1 -430 -657 )">
    <path d="M 65.67862733584411 57  L 7.603726050507702 57  C 4.545926611928962 57  1.9039770830859197 55.50345371990196  0.38166202546858585 53.20111269744193  C 2.751970715472453 46.947120815141446  5.543798658162132 40.836408103175486  8.73916833358453 34.95248215325994  C 11.64061808465317 29.43737170784921  15.295839496719735 24.336982042133283  19.603523403863164 19.792677020200763  C 24.182856594246005 15.220035616746042  28.79015189429265 12.902048423305066  33.296353413245924 12.902048423305066  C 44.76727117008522 12.902048423305066  55.66173928154058 27.7388553408854  65.67862733584411 57  Z M 111.14142676521487 53.85136573611981  C 109.5765226575927 55.78123844127782  107.15572881170124 57  104.39627392758143 57  L 65.67862733584411 57  C 67.5587285507163 53.50311398451627  69.82327684789266 50.18244309792261  72.40889203885354 47.1504147613674  C 74.5872425751736 44.54231331059551  77.14231203715235 42.26072715587488  79.9930765523759 40.37800773353626  C 82.83860867273052 38.450012620269796  86.19615665628362 37.380172681622646  89.65290997558327 37.300024738966925  C 97.11231248831109 37.300024738966925  104.32974889614184 42.86497763793489  111.14142676521487 53.85136573611981  Z M 67.82955884847092 6.334418041889277  C 67.82955884847092 2.836633951068159  70.7185733692886 0.0011196991545844234  74.28235338635159 0.0011196991545844234  C 77.84613340341457 0.0011196991545844234  80.73514792423225 2.836633951068159  80.73514792423225 6.334418041889277  C 80.73514792423225 9.832202132710396  77.84613340341457 12.667716384624235  74.28235338635159 12.667716384624235  C 70.7185733692886 12.667716384624235  67.82955884847092 9.832202132710396  67.82955884847092 6.334418041889277  Z " fill-rule="nonzero" fill="#748aa1" stroke="none" fill-opacity="0.2784313725490196" transform="matrix(1 0 0 1 430 657 )" />
    <path d="M 65.67862733584411 57  L 7.603726050507702 57  C 4.545926611928962 57  1.9039770830859197 55.50345371990196  0.38166202546858585 53.20111269744193  C 2.751970715472453 46.947120815141446  5.543798658162132 40.836408103175486  8.73916833358453 34.95248215325994  C 11.64061808465317 29.43737170784921  15.295839496719735 24.336982042133283  19.603523403863164 19.792677020200763  C 24.182856594246005 15.220035616746042  28.79015189429265 12.902048423305066  33.296353413245924 12.902048423305066  C 44.76727117008522 12.902048423305066  55.66173928154058 27.7388553408854  65.67862733584411 57  Z " stroke-width="2" stroke="#797979" fill="none" transform="matrix(1 0 0 1 430 657 )" mask="url(#clip53)" />
    <path d="M 111.14142676521487 53.85136573611981  C 109.5765226575927 55.78123844127782  107.15572881170124 57  104.39627392758143 57  L 65.67862733584411 57  C 67.5587285507163 53.50311398451627  69.82327684789266 50.18244309792261  72.40889203885354 47.1504147613674  C 74.5872425751736 44.54231331059551  77.14231203715235 42.26072715587488  79.9930765523759 40.37800773353626  C 82.83860867273052 38.450012620269796  86.19615665628362 37.380172681622646  89.65290997558327 37.300024738966925  C 97.11231248831109 37.300024738966925  104.32974889614184 42.86497763793489  111.14142676521487 53.85136573611981  Z " stroke-width="2" stroke="#797979" fill="none" transform="matrix(1 0 0 1 430 657 )" mask="url(#clip53)" />
    <path d="M 67.82955884847092 6.334418041889277  C 67.82955884847092 2.836633951068159  70.7185733692886 0.0011196991545844234  74.28235338635159 0.0011196991545844234  C 77.84613340341457 0.0011196991545844234  80.73514792423225 2.836633951068159  80.73514792423225 6.334418041889277  C 80.73514792423225 9.832202132710396  77.84613340341457 12.667716384624235  74.28235338635159 12.667716384624235  C 70.7185733692886 12.667716384624235  67.82955884847092 9.832202132710396  67.82955884847092 6.334418041889277  Z " stroke-width="2" stroke="#797979" fill="none" transform="matrix(1 0 0 1 430 657 )" mask="url(#clip53)" />
  </g>
</svg>