<?xml version="1.0" encoding="utf-8"?>
<svg version="1.1" xmlns:xlink="http://www.w3.org/1999/xlink" width="10px" height="17px" xmlns="http://www.w3.org/2000/svg">
  <defs>
    <mask fill="white" id="clip112">
      <path d="M 9.371652225167509 9.116959675292946  C 9.428564229910762 9.057808930664198  9.458694098772412 8.985414434814569  9.497535372488755 8.91769628784171  C 9.508262611607051 8.897098833007735  9.525649386160694 8.879856948242136  9.535044726562546 8.85858125732431  C 9.719207770647245 8.478724309081917  9.658911997767973 8.013907329101585  9.332810972377274 7.708408239746117  L 1.9406233886718383 0.7749567456053228  C 1.5374877790179653 0.3970988537597805  0.9020244977677976 0.41501899536127285  0.5203073730467622 0.8141525781251555  C 0.1392742047989941 1.2139287243651173  0.15669697265616378 1.844096478271437  0.5598325823102641 2.2226326269531302  L 7.192653641183142 8.444883082275526  L 0.5859307407924916 14.759447231445378  C 0.1868268415178136 15.141267542724549  0.17476768275673749 15.771470989990167  0.5598325823102641 16.167927280273354  C 0.7567027273994427 16.371117373046868  1.0198801967076179 16.472748112792928  1.2830576660155657 16.472748112792928  C 1.5341759974887736 16.472748112792928  1.7852943080356454 16.379791855468874  1.9801485979353401 16.193843647460955  L 9.305380894252266 9.192638333740312  C 9.319455908203054 9.17868061157219  9.32478352399562 9.159439670409999  9.338858537946408 9.144839405517587  C 9.349585777064704 9.13487981689444  9.36096097935274 9.12756182739243  9.371652225167509 9.116959675292946  Z " fill-rule="evenodd" />
    </mask>
  </defs>
  <g transform="matrix(1 0 0 1 -599 -492 )">
    <path d="M 9.371652225167509 9.116959675292946  C 9.428564229910762 9.057808930664198  9.458694098772412 8.985414434814569  9.497535372488755 8.91769628784171  C 9.508262611607051 8.897098833007735  9.525649386160694 8.879856948242136  9.535044726562546 8.85858125732431  C 9.719207770647245 8.478724309081917  9.658911997767973 8.013907329101585  9.332810972377274 7.708408239746117  L 1.9406233886718383 0.7749567456053228  C 1.5374877790179653 0.3970988537597805  0.9020244977677976 0.41501899536127285  0.5203073730467622 0.8141525781251555  C 0.1392742047989941 1.2139287243651173  0.15669697265616378 1.844096478271437  0.5598325823102641 2.2226326269531302  L 7.192653641183142 8.444883082275526  L 0.5859307407924916 14.759447231445378  C 0.1868268415178136 15.141267542724549  0.17476768275673749 15.771470989990167  0.5598325823102641 16.167927280273354  C 0.7567027273994427 16.371117373046868  1.0198801967076179 16.472748112792928  1.2830576660155657 16.472748112792928  C 1.5341759974887736 16.472748112792928  1.7852943080356454 16.379791855468874  1.9801485979353401 16.193843647460955  L 9.305380894252266 9.192638333740312  C 9.319455908203054 9.17868061157219  9.32478352399562 9.159439670409999  9.338858537946408 9.144839405517587  C 9.349585777064704 9.13487981689444  9.36096097935274 9.12756182739243  9.371652225167509 9.116959675292946  Z " fill-rule="nonzero" fill="#999999" stroke="none" transform="matrix(1 0 0 1 599 492 )" />
    <path d="M 9.371652225167509 9.116959675292946  C 9.428564229910762 9.057808930664198  9.458694098772412 8.985414434814569  9.497535372488755 8.91769628784171  C 9.508262611607051 8.897098833007735  9.525649386160694 8.879856948242136  9.535044726562546 8.85858125732431  C 9.719207770647245 8.478724309081917  9.658911997767973 8.013907329101585  9.332810972377274 7.708408239746117  L 1.9406233886718383 0.7749567456053228  C 1.5374877790179653 0.3970988537597805  0.9020244977677976 0.41501899536127285  0.5203073730467622 0.8141525781251555  C 0.1392742047989941 1.2139287243651173  0.15669697265616378 1.844096478271437  0.5598325823102641 2.2226326269531302  L 7.192653641183142 8.444883082275526  L 0.5859307407924916 14.759447231445378  C 0.1868268415178136 15.141267542724549  0.17476768275673749 15.771470989990167  0.5598325823102641 16.167927280273354  C 0.7567027273994427 16.371117373046868  1.0198801967076179 16.472748112792928  1.2830576660155657 16.472748112792928  C 1.5341759974887736 16.472748112792928  1.7852943080356454 16.379791855468874  1.9801485979353401 16.193843647460955  L 9.305380894252266 9.192638333740312  C 9.319455908203054 9.17868061157219  9.32478352399562 9.159439670409999  9.338858537946408 9.144839405517587  C 9.349585777064704 9.13487981689444  9.36096097935274 9.12756182739243  9.371652225167509 9.116959675292946  Z " stroke-width="2" stroke="#797979" fill="none" transform="matrix(1 0 0 1 599 492 )" mask="url(#clip112)" />
  </g>
</svg>