<?xml version="1.0" encoding="utf-8"?>
<svg version="1.1" xmlns:xlink="http://www.w3.org/1999/xlink" width="7px" height="9px" xmlns="http://www.w3.org/2000/svg">
  <defs>
    <mask fill="white" id="clip95">
      <path d="M 6.560156557617221 4.826625710449207  C 6.599994960937693 4.795310610351566  6.621085869140794 4.756984112548821  6.64827476074197 4.721133328857445  C 6.655783828125095 4.7102287939453396  6.66795457031238 4.70110073730466  6.6745313085939415 4.689837136230517  C 6.803445439453071 4.48873639892579  6.7612383984374755 4.242656821289074  6.532967680664038 4.080922009277356  L 1.3584363720703752 0.41027121826170965  C 1.076241445312664 0.2102288049316485  0.6314171484374229 0.21971593872067385  0.36421516113273356 0.43102195312501407  C 0.09749194335952577 0.6426681481933656  0.10968788085950919 0.9762863708495844  0.3918828076172203 1.1766878613281277  L 5.034857548827935 4.470820455322269  L 0.4101515185549387 7.813825004882778  C 0.13077878906243412 8.015965169677703  0.12233737792975162 8.349602288818323  0.3918828076172203 8.55949091308596  C 0.5296919091796453 8.667062138671872  0.7139161376954033 8.720866647949197  0.8981403662108076 8.720866647949197  C 1.07392319824223 8.720866647949197  1.2497060156249518 8.671654511718748  1.3861040185545082 8.573211342773448  L 6.5137666259765865 4.866690882568401  C 6.523619135742138 4.859301500244168  6.52734846679674 4.849115119628891  6.537200976562291 4.841385567626958  C 6.5447100439454164 4.836112844238301  6.5526726855469715 4.832238614501944  6.560156557617221 4.826625710449207  Z " fill-rule="evenodd" />
    </mask>
  </defs>
  <g transform="matrix(1 0 0 1 -1395 -482 )">
    <path d="M 6.560156557617221 4.826625710449207  C 6.599994960937693 4.795310610351566  6.621085869140794 4.756984112548821  6.64827476074197 4.721133328857445  C 6.655783828125095 4.7102287939453396  6.66795457031238 4.70110073730466  6.6745313085939415 4.689837136230517  C 6.803445439453071 4.48873639892579  6.7612383984374755 4.242656821289074  6.532967680664038 4.080922009277356  L 1.3584363720703752 0.41027121826170965  C 1.076241445312664 0.2102288049316485  0.6314171484374229 0.21971593872067385  0.36421516113273356 0.43102195312501407  C 0.09749194335952577 0.6426681481933656  0.10968788085950919 0.9762863708495844  0.3918828076172203 1.1766878613281277  L 5.034857548827935 4.470820455322269  L 0.4101515185549387 7.813825004882778  C 0.13077878906243412 8.015965169677703  0.12233737792975162 8.349602288818323  0.3918828076172203 8.55949091308596  C 0.5296919091796453 8.667062138671872  0.7139161376954033 8.720866647949197  0.8981403662108076 8.720866647949197  C 1.07392319824223 8.720866647949197  1.2497060156249518 8.671654511718748  1.3861040185545082 8.573211342773448  L 6.5137666259765865 4.866690882568401  C 6.523619135742138 4.859301500244168  6.52734846679674 4.849115119628891  6.537200976562291 4.841385567626958  C 6.5447100439454164 4.836112844238301  6.5526726855469715 4.832238614501944  6.560156557617221 4.826625710449207  Z " fill-rule="nonzero" fill="#999999" stroke="none" transform="matrix(1 0 0 1 1395 482 )" />
    <path d="M 6.560156557617221 4.826625710449207  C 6.599994960937693 4.795310610351566  6.621085869140794 4.756984112548821  6.64827476074197 4.721133328857445  C 6.655783828125095 4.7102287939453396  6.66795457031238 4.70110073730466  6.6745313085939415 4.689837136230517  C 6.803445439453071 4.48873639892579  6.7612383984374755 4.242656821289074  6.532967680664038 4.080922009277356  L 1.3584363720703752 0.41027121826170965  C 1.076241445312664 0.2102288049316485  0.6314171484374229 0.21971593872067385  0.36421516113273356 0.43102195312501407  C 0.09749194335952577 0.6426681481933656  0.10968788085950919 0.9762863708495844  0.3918828076172203 1.1766878613281277  L 5.034857548827935 4.470820455322269  L 0.4101515185549387 7.813825004882778  C 0.13077878906243412 8.015965169677703  0.12233737792975162 8.349602288818323  0.3918828076172203 8.55949091308596  C 0.5296919091796453 8.667062138671872  0.7139161376954033 8.720866647949197  0.8981403662108076 8.720866647949197  C 1.07392319824223 8.720866647949197  1.2497060156249518 8.671654511718748  1.3861040185545082 8.573211342773448  L 6.5137666259765865 4.866690882568401  C 6.523619135742138 4.859301500244168  6.52734846679674 4.849115119628891  6.537200976562291 4.841385567626958  C 6.5447100439454164 4.836112844238301  6.5526726855469715 4.832238614501944  6.560156557617221 4.826625710449207  Z " stroke-width="2" stroke="#797979" fill="none" transform="matrix(1 0 0 1 1395 482 )" mask="url(#clip95)" />
  </g>
</svg>