<?xml version="1.0" encoding="utf-8"?>
<svg version="1.1" xmlns:xlink="http://www.w3.org/1999/xlink" width="25px" height="36px" xmlns="http://www.w3.org/2000/svg">
  <defs>
    <mask fill="white" id="clip32">
      <path d="M 23.429130562918772 19.90983105560298  C 23.571410574776905 19.780656267700493  23.64673524693103 19.622559464264143  23.74383843122189 19.47467498153668  C 23.77065652901763 19.42969377502419  23.814123465401735 19.392040541381746  23.837611816406366 19.34557818695083  C 24.29801942661811 18.516037645568574  24.147279994419932 17.50095938781743  23.332027430943185 16.833803288269067  L 4.851558471679596 1.692368775329271  C 3.8437194475449132 0.8671938203430756  2.255061244419494 0.9063282472228309  1.3007684326169056 1.7779655566409645  C 0.34818551199748526 2.6510061112973773  0.3917424316404095 4.027181279754586  1.3995814557756603 4.853837427978476  L 17.981634102957855 18.442134378204614  L 12.08473075550853 23.365463050603708  L 1.464826851981229 32.23202814514177  C 0.467067103794534 33.065856324920546  0.4369192068918437 34.442109441375635  1.3995814557756603 35.30790001647928  C 1.8917568184986067 35.751631322021524  2.5497004917690447 35.97357492279046  3.2076441650389143 35.97357492279046  C 3.835439993721934 35.97357492279046  4.463235770089113 35.77057486084014  4.95037149483835 35.36449678894047  L 23.263452235630666 20.0750998905946  C 23.298639770507634 20.044618688506915  23.31195880998905 20.00259986846892  23.34714634486602 19.9707154664612  C 23.37396444266176 19.948965482482734  23.40240244838185 19.932984284820236  23.429130562918772 19.90983105560298  Z " fill-rule="evenodd" />
    </mask>
  </defs>
  <g transform="matrix(1 0 0 1 -878 -493 )">
    <path d="M 23.429130562918772 19.90983105560298  C 23.571410574776905 19.780656267700493  23.64673524693103 19.622559464264143  23.74383843122189 19.47467498153668  C 23.77065652901763 19.42969377502419  23.814123465401735 19.392040541381746  23.837611816406366 19.34557818695083  C 24.29801942661811 18.516037645568574  24.147279994419932 17.50095938781743  23.332027430943185 16.833803288269067  L 4.851558471679596 1.692368775329271  C 3.8437194475449132 0.8671938203430756  2.255061244419494 0.9063282472228309  1.3007684326169056 1.7779655566409645  C 0.34818551199748526 2.6510061112973773  0.3917424316404095 4.027181279754586  1.3995814557756603 4.853837427978476  L 17.981634102957855 18.442134378204614  L 12.08473075550853 23.365463050603708  L 1.464826851981229 32.23202814514177  C 0.467067103794534 33.065856324920546  0.4369192068918437 34.442109441375635  1.3995814557756603 35.30790001647928  C 1.8917568184986067 35.751631322021524  2.5497004917690447 35.97357492279046  3.2076441650389143 35.97357492279046  C 3.835439993721934 35.97357492279046  4.463235770089113 35.77057486084014  4.95037149483835 35.36449678894047  L 23.263452235630666 20.0750998905946  C 23.298639770507634 20.044618688506915  23.31195880998905 20.00259986846892  23.34714634486602 19.9707154664612  C 23.37396444266176 19.948965482482734  23.40240244838185 19.932984284820236  23.429130562918772 19.90983105560298  Z " fill-rule="nonzero" fill="#999999" stroke="none" transform="matrix(1 0 0 1 878 493 )" />
    <path d="M 23.429130562918772 19.90983105560298  C 23.571410574776905 19.780656267700493  23.64673524693103 19.622559464264143  23.74383843122189 19.47467498153668  C 23.77065652901763 19.42969377502419  23.814123465401735 19.392040541381746  23.837611816406366 19.34557818695083  C 24.29801942661811 18.516037645568574  24.147279994419932 17.50095938781743  23.332027430943185 16.833803288269067  L 4.851558471679596 1.692368775329271  C 3.8437194475449132 0.8671938203430756  2.255061244419494 0.9063282472228309  1.3007684326169056 1.7779655566409645  C 0.34818551199748526 2.6510061112973773  0.3917424316404095 4.027181279754586  1.3995814557756603 4.853837427978476  L 17.981634102957855 18.442134378204614  L 12.08473075550853 23.365463050603708  L 1.464826851981229 32.23202814514177  C 0.467067103794534 33.065856324920546  0.4369192068918437 34.442109441375635  1.3995814557756603 35.30790001647928  C 1.8917568184986067 35.751631322021524  2.5497004917690447 35.97357492279046  3.2076441650389143 35.97357492279046  C 3.835439993721934 35.97357492279046  4.463235770089113 35.77057486084014  4.95037149483835 35.36449678894047  L 23.263452235630666 20.0750998905946  C 23.298639770507634 20.044618688506915  23.31195880998905 20.00259986846892  23.34714634486602 19.9707154664612  C 23.37396444266176 19.948965482482734  23.40240244838185 19.932984284820236  23.429130562918772 19.90983105560298  Z " stroke-width="2" stroke="#797979" fill="none" transform="matrix(1 0 0 1 878 493 )" mask="url(#clip32)" />
  </g>
</svg>