<?xml version="1.0" encoding="utf-8"?>
<svg version="1.1" xmlns:xlink="http://www.w3.org/1999/xlink" width="24px" height="20px" xmlns="http://www.w3.org/2000/svg">
  <g transform="matrix(1 0 0 1 -1360 -170 )">
    <path d="M 14.71875 12.265625  C 15.983173076923094 11.211939102564088  16.61538461538464 9.943910256410268  16.61538461538464 8.461538461538444  C 16.61538461538464 6.979166666666666  15.983173076923094 5.711137820512798  14.71875 4.657451923076934  C 13.454326923076906 3.603766025641022  11.932692307692264 3.076923076923066  10.153846153846189 3.076923076923066  C 8.375 3.076923076923066  6.853365384615358 3.603766025641022  5.588942307692264 4.657451923076934  C 4.324519230769283 5.711137820512798  3.692307692307736 6.979166666666666  3.692307692307736 8.461538461538444  C 3.692307692307736 9.943910256410268  4.324519230769283 11.211939102564088  5.588942307692264 12.265625  C 6.853365384615358 13.319310897435912  8.375 13.846153846153868  10.153846153846189 13.846153846153868  C 11.932692307692264 13.846153846153868  13.454326923076906 13.319310897435912  14.71875 12.265625  Z M 23.46634615384619 17.37980769230769  C 23.82211538461536 17.676282051282044  24 18.036858974358978  24 18.461538461538442  C 24 18.87820512820511  23.817307692307736 19.238782051282044  23.451923076923094 19.543269230769244  C 23.086538461538453 19.847756410256398  22.65384615384619 20  22.15384615384619 20  C 21.63461538461536 20  21.201923076923094 19.847756410256398  20.855769230769283 19.543269230769244  L 15.908653846153811 15.43269230769231  C 14.1875 16.426282051282044  12.269230769230717 16.923076923076934  10.153846153846189 16.923076923076934  C 8.778846153846189 16.923076923076934  7.463942307692264 16.700721153846132  6.209134615384642 16.256009615384624  C 4.954326923076906 15.811298076923066  3.872596153846189 15.210336538461558  2.963942307692264 14.453125  C 2.055288461538453 13.695913461538442  1.3341346153846416 12.794471153846132  0.8004807692307168 11.748798076923066  C 0.2668269230769056 10.703125  0 9.607371794871776  0 8.461538461538444  C 0 7.31570512820511  0.2668269230769056 6.219951923076934  0.8004807692307168 5.174278846153868  C 1.3341346153846416 4.128605769230755  2.055288461538453 3.227163461538443  2.963942307692264 2.469951923076934  C 3.872596153846189 1.7127403846153775  4.954326923076906 1.111778846153868  6.209134615384642 0.6670673076923113  C 7.463942307692264 0.22235576923075467  8.778846153846189 0  10.153846153846189 0  C 11.528846153846189 0  12.84375 0.22235576923075467  14.098557692307736 0.6670673076923113  C 15.353365384615358 1.111778846153868  16.43509615384619 1.7127403846153775  17.34375 2.469951923076934  C 18.25240384615381 3.227163461538443  18.973557692307736 4.128605769230755  19.507211538461547 5.174278846153868  C 20.04086538461536 6.219951923076934  20.307692307692264 7.31570512820511  20.307692307692264 8.461538461538444  C 20.307692307692264 10.224358974358978  19.711538461538453 11.822916666666668  18.519230769230717 13.257211538461558  L 23.46634615384619 17.37980769230769  Z " fill-rule="nonzero" fill="#666666" stroke="none" transform="matrix(1 0 0 1 1360 170 )" />
  </g>
</svg>