<?xml version="1.0" encoding="utf-8"?>
<svg version="1.1" xmlns:xlink="http://www.w3.org/1999/xlink" width="50px" height="34px" xmlns="http://www.w3.org/2000/svg">
  <g transform="matrix(1 0 0 1 -451 -86 )">
    <path d="M 34.49435763888889 25.399852724594993  C 35.29730902777778 24.473490427098675  35.69878472222222 23.359351988217966  35.69878472222222 22.05743740795287  C 35.69878472222222 21.0726558664703  35.45283564814815 20.183848797250857  34.9609375 19.39101620029455  C 34.469039351851855 18.598183603338242  33.839699074074076 18.026509572901325  33.07291666666667 17.675994108983797  C 32.971643518518526 18.427098674521357  32.8052662037037 19.19489445262641  32.57378472222222 19.97938144329897  C 32.472511574074076 20.379970544918997  32.27358217592593 20.69710358370152  31.97699652777778 20.93078055964654  C 31.680410879629633 21.164457535591556  31.358506944444443 21.281296023564064  31.01128472222222 21.281296023564064  C 30.83767361111111 21.281296023564064  30.6640625 21.256259204712812  30.49045138888889 21.20618556701031  C 30.041956018518523 21.039273441335297  29.716435185185187 20.7179675994109  29.51388888888889 20.242268041237114  C 29.31134259259259 19.766568483063327  29.282407407407412 19.278350515463917  29.427083333333332 18.77761413843888  C 29.759837962962965 17.59253804614629  29.92621527777778 16.399116347569954  29.92621527777778 15.197349042709867  C 29.92621527777778 13.144329896907216  29.484953703703702 11.24570446735395  28.602430555555557 9.501472754050074  C 27.719907407407412 7.7572410407461945  26.51909722222222 6.376043200785465  25 5.357879234167894  C 23.48090277777778 4.339715267550319  21.831597222222225 3.830633284241533  20.052083333333336 3.830633284241533  C 18.113425925925927 3.830633284241533  16.32667824074074 4.439862542955326  14.691840277777779 5.658321060382915  C 13.057002314814817 6.8767795778105  11.848958333333332 8.495827196858121  11.067708333333332 10.515463917525773  C 12.630208333333334 10.982817869415806  13.990162037037038 11.867452135493371  15.147569444444445 13.169366715758468  C 15.465856481481483 13.553264604810995  15.625 14.01227295041728  15.625 14.546391752577321  C 15.625 15.080510554737359  15.465856481481483 15.53117329405989  15.147569444444445 15.89837997054492  C 14.829282407407407 16.265586647029945  14.438657407407407 16.449189985272458  13.975694444444445 16.449189985272458  C 13.512731481481483 16.449189985272458  13.114872685185187 16.265586647029945  12.782118055555555 15.89837997054492  C 11.69704861111111 14.646539027982328  10.394965277777777 14.02061855670103  8.875868055555555 14.02061855670103  C 7.342303240740741 14.02061855670103  6.032986111111112 14.64236622484045  4.947916666666666 15.885861561119293  C 3.8628472222222223 17.129356897398132  3.3203125 18.635738831615118  3.3203125 20.40500736377025  C 3.3203125 22.174275895925376  3.8628472222222223 23.680657830142366  4.947916666666666 24.92415316642121  C 6.032986111111112 26.167648502700047  7.342303240740741 26.78939617083947  8.875868055555555 26.78939617083947  L 31.575520833333332 26.78939617083947  C 32.71846064814815 26.78939617083947  33.69140625 26.32621502209131  34.49435763888889 25.399852724594993  Z M 37.35894097222222 16.687039764359355  C 38.46571180555556 18.24766813942071  39.01909722222222 20.03780068728522  39.01909722222222 22.05743740795287  C 39.01909722222222 24.42758959253804  38.29210069444444 26.447226313205697  36.83810763888889 28.116347569955817  C 35.38411458333333 29.78546882670594  33.62991898148148 30.620029455081003  31.575520833333332 30  L 8.875868055555555 30  C 6.430844907407408 30.620029455081003  4.340277777777779 29.622729504172803  2.604166666666667 27.628129602356406  C 0.8680555555555556 25.63352970054001  0 23.225822287677957  0 20.40500736377025  C 0 17.851251840942563  0.7233796296296295 15.62297496318115  2.170138888888889 13.72017673048601  C 3.6168981481481484 11.817378497790864  5.4181134259259265 10.682376043200781  7.573784722222222 10.31516936671576  C 8.470775462962964 7.24398625429553  10.069444444444446 4.756995581737848  12.369791666666668 2.8541973490427113  C 14.67013888888889 0.9513991163475704  17.23090277777778 0  20.052083333333336 0  C 23.45196759259259 0  26.406973379629633 1.3227785959744713  28.917100694444443 3.968335787923418  C 31.427228009259263 6.6138929798723565  32.84866898148148 9.864506627393224  33.18142361111111 13.72017673048601  C 34.859664351851855 14.137457044673539  36.25217013888889 15.126411389297987  37.35894097222222 16.687039764359355  Z M 42.33940972222222 14.095729013254786  C 43.7427662037037 16.46588119783996  44.44444444444444 19.119783996072655  44.44444444444444 22.05743740795287  C 44.44444444444444 24.978399607265587  43.7427662037037 27.640648011782034  42.33940972222222 30.04418262150221  C 42.006655092592595 30.59499263622975  41.54369212962963 30.87039764359352  40.95052083333333 30.87039764359352  C 40.603298611111114 30.87039764359352  40.29224537037038 30.761904761904763  40.01736111111111 30.544918998527248  C 39.64120370370371 30.261168384879724  39.40972222222223 29.85640648011782  39.32291666666667 29.330633284241532  C 39.236111111111114 28.804860088365242  39.32291666666667 28.32498772704958  39.58333333333333 27.89101620029455  C 40.61053240740741 26.155130093274423  41.12413194444444 24.21060382916053  41.12413194444444 22.05743740795287  C 41.12413194444444 19.90427098674521  40.61053240740741 17.959744722631317  39.58333333333333 16.223858615611192  C 39.32291666666667 15.789887088856162  39.236111111111114 15.314187530682375  39.32291666666667 14.796759941089839  C 39.40972222222223 14.279332351497299  39.64120370370371 13.87039764359352  40.01736111111111 13.5699558173785  C 40.393518518518526 13.269513991163475  40.80946180555556 13.173539518900338  41.26519097222222 13.282032400589104  C 41.72092013888889 13.390525282277856  42.07899305555556 13.661757486499756  42.33940972222222 14.095729013254786  Z M 47.09201388888889 10.991163475699556  C 49.030671296296305 14.2960235640648  50 17.98478154148257  50 22.05743740795287  C 50 26.130093274423167  49.030671296296305 29.827196858124694  47.09201388888889 33.14874815905743  C 46.75925925925927 33.71624938635248  46.296296296296305 34  45.703125 34  C 45.37037037037038 34  45.06655092592593 33.89150711831124  44.79166666666667 33.67452135493373  C 44.41550925925926 33.3740795287187  44.18041087962963 32.96514482081492  44.08637152777778 32.447717231222384  C 43.99233217592593 31.930289641629848  44.075520833333336 31.454590083456065  44.3359375 31.02061855670103  C 45.8984375 28.28325969563083  46.6796875 25.29553264604811  46.6796875 22.05743740795287  C 46.6796875 18.802650957290133  45.8984375 15.823269513991164  44.3359375 13.119293078055964  C 44.075520833333336 12.685321551300934  43.99233217592593 12.20544918998527  44.08637152777778 11.679675994108983  C 44.18041087962963 11.153902798232693  44.41550925925926 10.74914089347079  44.79166666666667 10.46539027982327  C 45.167824074074076 10.164948453608249  45.58015046296296 10.064801178203238  46.02864583333333 10.164948453608249  C 46.47714120370371 10.265095729013256  46.83159722222222 10.540500736377025  47.09201388888889 10.991163475699556  Z " fill-rule="nonzero" fill="#999999" stroke="none" transform="matrix(1 0 0 1 451 86 )" />
  </g>
</svg>