<?xml version="1.0" encoding="utf-8"?>
<svg version="1.1" xmlns:xlink="http://www.w3.org/1999/xlink" width="9px" height="15px" xmlns="http://www.w3.org/2000/svg">
  <defs>
    <mask fill="white" id="clip22">
      <path d="M 8.434487002650712 8.044376184082012  C 8.48570780691989 7.992184350585944  8.512824688895307 7.928306854248036  8.547781835239675 7.868555548095743  C 8.557436350446551 7.850381323242232  8.573084447544488 7.835167895507766  8.581540253906496 7.816395227050862  C 8.74728699358252 7.481227331542982  8.69302079799104 7.071094702148457  8.399529875139478 6.801536682128926  L 1.7465610498047681 0.6837853637695162  C 1.3837390011162825 0.35038134155274747  0.8118220479909724 0.3661932312011231  0.468276635742086 0.7183699218750235  C 0.12534678431939028 1.071113580322276  0.1410272753907975 1.6271439514159738  0.5038493240792832 1.9611464355468797  L 6.473388277064487 7.451367425537114  L 0.5273376667134926 13.023041674804631  C 0.16814415736598676 13.359941949462836  0.1572909144811092 13.916003814697206  0.5038493240792832 14.2658181884766  C 0.6810324546595439 14.44510356445312  0.917892177036947 14.534777746581995  1.1547518994138954 14.534777746581995  C 1.38075839774001 14.534777746581995  1.6067648772320808 14.452757519531247  1.7821337381415105 14.28868557128908  L 8.37484280482704 8.111151470947334  C 8.387510317382748 8.098835833740281  8.392305171595808 8.081858532714818  8.404972684151517 8.06897594604493  C 8.414627199358392 8.060188073730501  8.424864881417534 8.053731024169906  8.434487002650712 8.044376184082012  Z " fill-rule="evenodd" />
    </mask>
  </defs>
  <g transform="matrix(1 0 0 1 -1389 -490 )">
    <path d="M 8.434487002650712 8.044376184082012  C 8.48570780691989 7.992184350585944  8.512824688895307 7.928306854248036  8.547781835239675 7.868555548095743  C 8.557436350446551 7.850381323242232  8.573084447544488 7.835167895507766  8.581540253906496 7.816395227050862  C 8.74728699358252 7.481227331542982  8.69302079799104 7.071094702148457  8.399529875139478 6.801536682128926  L 1.7465610498047681 0.6837853637695162  C 1.3837390011162825 0.35038134155274747  0.8118220479909724 0.3661932312011231  0.468276635742086 0.7183699218750235  C 0.12534678431939028 1.071113580322276  0.1410272753907975 1.6271439514159738  0.5038493240792832 1.9611464355468797  L 6.473388277064487 7.451367425537114  L 0.5273376667134926 13.023041674804631  C 0.16814415736598676 13.359941949462836  0.1572909144811092 13.916003814697206  0.5038493240792832 14.2658181884766  C 0.6810324546595439 14.44510356445312  0.917892177036947 14.534777746581995  1.1547518994138954 14.534777746581995  C 1.38075839774001 14.534777746581995  1.6067648772320808 14.452757519531247  1.7821337381415105 14.28868557128908  L 8.37484280482704 8.111151470947334  C 8.387510317382748 8.098835833740281  8.392305171595808 8.081858532714818  8.404972684151517 8.06897594604493  C 8.414627199358392 8.060188073730501  8.424864881417534 8.053731024169906  8.434487002650712 8.044376184082012  Z " fill-rule="nonzero" fill="#999999" stroke="none" transform="matrix(1 0 0 1 1389 490 )" />
    <path d="M 8.434487002650712 8.044376184082012  C 8.48570780691989 7.992184350585944  8.512824688895307 7.928306854248036  8.547781835239675 7.868555548095743  C 8.557436350446551 7.850381323242232  8.573084447544488 7.835167895507766  8.581540253906496 7.816395227050862  C 8.74728699358252 7.481227331542982  8.69302079799104 7.071094702148457  8.399529875139478 6.801536682128926  L 1.7465610498047681 0.6837853637695162  C 1.3837390011162825 0.35038134155274747  0.8118220479909724 0.3661932312011231  0.468276635742086 0.7183699218750235  C 0.12534678431939028 1.071113580322276  0.1410272753907975 1.6271439514159738  0.5038493240792832 1.9611464355468797  L 6.473388277064487 7.451367425537114  L 0.5273376667134926 13.023041674804631  C 0.16814415736598676 13.359941949462836  0.1572909144811092 13.916003814697206  0.5038493240792832 14.2658181884766  C 0.6810324546595439 14.44510356445312  0.917892177036947 14.534777746581995  1.1547518994138954 14.534777746581995  C 1.38075839774001 14.534777746581995  1.6067648772320808 14.452757519531247  1.7821337381415105 14.28868557128908  L 8.37484280482704 8.111151470947334  C 8.387510317382748 8.098835833740281  8.392305171595808 8.081858532714818  8.404972684151517 8.06897594604493  C 8.414627199358392 8.060188073730501  8.424864881417534 8.053731024169906  8.434487002650712 8.044376184082012  Z " stroke-width="2" stroke="#797979" fill="none" transform="matrix(1 0 0 1 1389 490 )" mask="url(#clip22)" />
  </g>
</svg>