<?xml version="1.0" encoding="utf-8"?>
<svg version="1.1" xmlns:xlink="http://www.w3.org/1999/xlink" width="25px" height="32px" xmlns="http://www.w3.org/2000/svg">
  <defs>
    <mask fill="white" id="clip23">
      <path d="M 23.429130562918772 17.697627604980426  C 23.571410574776905 17.582805571289327  23.64673524693103 17.442275079345904  23.74383843122189 17.310822205810382  C 23.77065652901763 17.270838911132614  23.814123465401735 17.237369370117108  23.837611816406366 17.19606949951185  C 24.29801942661811 16.458700129394288  24.147279994419932 15.556408344726606  23.332027430943185 14.963380700683615  L 4.851558471679596 1.5043278002926854  C 3.8437194475449132 0.7708389514160672  2.255061244419494 0.8056251086425164  1.3007684326169056 1.5804138281253017  C 0.34818551199748526 2.35644987670878  0.3917424316404095 3.579716693115188  1.3995814557756603 4.31452215820309  L 17.981634102957855 16.39300833618188  L 12.08473075550853 20.769300489425518  L 1.464826851981229 28.65069168457046  C 0.467067103794534 29.391872288818263  0.4369192068918437 30.615208392333898  1.3995814557756603 31.38480001464825  C 1.8917568184986067 31.77922784179691  2.5497004917690447 31.97651104248041  3.2076441650389143 31.97651104248041  C 3.835439993721934 31.97651104248041  4.463235770089113 31.796066542969015  4.95037149483835 31.435108256835974  L 23.263452235630666 17.84453323608409  C 23.298639770507634 17.81743883422837  23.31195880998905 17.780088771972373  23.34714634486602 17.751747081298845  C 23.37396444266176 17.732413762206875  23.40240244838185 17.718208253173543  23.429130562918772 17.697627604980426  Z " fill-rule="evenodd" />
    </mask>
  </defs>
  <g transform="matrix(1 0 0 1 -888 -899 )">
    <path d="M 23.429130562918772 17.697627604980426  C 23.571410574776905 17.582805571289327  23.64673524693103 17.442275079345904  23.74383843122189 17.310822205810382  C 23.77065652901763 17.270838911132614  23.814123465401735 17.237369370117108  23.837611816406366 17.19606949951185  C 24.29801942661811 16.458700129394288  24.147279994419932 15.556408344726606  23.332027430943185 14.963380700683615  L 4.851558471679596 1.5043278002926854  C 3.8437194475449132 0.7708389514160672  2.255061244419494 0.8056251086425164  1.3007684326169056 1.5804138281253017  C 0.34818551199748526 2.35644987670878  0.3917424316404095 3.579716693115188  1.3995814557756603 4.31452215820309  L 17.981634102957855 16.39300833618188  L 12.08473075550853 20.769300489425518  L 1.464826851981229 28.65069168457046  C 0.467067103794534 29.391872288818263  0.4369192068918437 30.615208392333898  1.3995814557756603 31.38480001464825  C 1.8917568184986067 31.77922784179691  2.5497004917690447 31.97651104248041  3.2076441650389143 31.97651104248041  C 3.835439993721934 31.97651104248041  4.463235770089113 31.796066542969015  4.95037149483835 31.435108256835974  L 23.263452235630666 17.84453323608409  C 23.298639770507634 17.81743883422837  23.31195880998905 17.780088771972373  23.34714634486602 17.751747081298845  C 23.37396444266176 17.732413762206875  23.40240244838185 17.718208253173543  23.429130562918772 17.697627604980426  Z " fill-rule="nonzero" fill="#999999" stroke="none" transform="matrix(1 0 0 1 888 899 )" />
    <path d="M 23.429130562918772 17.697627604980426  C 23.571410574776905 17.582805571289327  23.64673524693103 17.442275079345904  23.74383843122189 17.310822205810382  C 23.77065652901763 17.270838911132614  23.814123465401735 17.237369370117108  23.837611816406366 17.19606949951185  C 24.29801942661811 16.458700129394288  24.147279994419932 15.556408344726606  23.332027430943185 14.963380700683615  L 4.851558471679596 1.5043278002926854  C 3.8437194475449132 0.7708389514160672  2.255061244419494 0.8056251086425164  1.3007684326169056 1.5804138281253017  C 0.34818551199748526 2.35644987670878  0.3917424316404095 3.579716693115188  1.3995814557756603 4.31452215820309  L 17.981634102957855 16.39300833618188  L 12.08473075550853 20.769300489425518  L 1.464826851981229 28.65069168457046  C 0.467067103794534 29.391872288818263  0.4369192068918437 30.615208392333898  1.3995814557756603 31.38480001464825  C 1.8917568184986067 31.77922784179691  2.5497004917690447 31.97651104248041  3.2076441650389143 31.97651104248041  C 3.835439993721934 31.97651104248041  4.463235770089113 31.796066542969015  4.95037149483835 31.435108256835974  L 23.263452235630666 17.84453323608409  C 23.298639770507634 17.81743883422837  23.31195880998905 17.780088771972373  23.34714634486602 17.751747081298845  C 23.37396444266176 17.732413762206875  23.40240244838185 17.718208253173543  23.429130562918772 17.697627604980426  Z " stroke-width="2" stroke="#797979" fill="none" transform="matrix(1 0 0 1 888 899 )" mask="url(#clip23)" />
  </g>
</svg>