<?xml version="1.0" encoding="utf-8"?>
<svg version="1.1" xmlns:xlink="http://www.w3.org/1999/xlink" width="18px" height="22px" xmlns="http://www.w3.org/2000/svg">
  <defs>
    <mask fill="white" id="clip24">
      <path d="M 16.868974005301514 11.798418403320284  C 16.971415613839373 11.721870380859551  17.02564937779034 11.628183386230619  17.09556367047976 11.54054813720692  C 17.114872700892693 11.513892607421774  17.14616889508925 11.491579580078056  17.163080507812584 11.46404633300793  C 17.49457398716504 10.97246675292954  17.386041595982352 10.370938896484404  16.799059750279095 9.975587133789093  L 3.493122099609309 1.0028852001951236  C 2.7674780022323375 0.513892634277363  1.6236440959820355 0.5370834057616473  0.936553271484172 1.0536092187502013  C 0.2506935686381894 1.5709665844725047  0.2820545507810948 2.386477795410095  1.0076986481584755 2.876348105468757  L 12.946776554129656 10.928672224121268  L 1.054675333426485 19.10046112304696  C 0.3362883147320645 19.594581525878827  0.31458182896212744 20.41013892822257  1.0076986481584755 20.923200009765516  C 1.362064909318997 21.186151894531243  1.8357843540737122 21.31767402832026  2.3095037988280183 21.31767402832026  C 2.7615167954797926 21.31767402832026  3.2135297544641617 21.19737769531266  3.564267476283612 20.956738837890647  L 16.74968560965408 11.896355490722756  C 16.775020634765497 11.878292556152246  16.784610343192117 11.853392514648233  16.809945368303534 11.83449805419923  C 16.82925439871647 11.821609174804568  16.84972976283493 11.812138835449028  16.868974005301514 11.798418403320284  Z " fill-rule="evenodd" />
    </mask>
  </defs>
  <g transform="matrix(1 0 0 1 -1366 -880 )">
    <path d="M 16.868974005301514 11.798418403320284  C 16.971415613839373 11.721870380859551  17.02564937779034 11.628183386230619  17.09556367047976 11.54054813720692  C 17.114872700892693 11.513892607421774  17.14616889508925 11.491579580078056  17.163080507812584 11.46404633300793  C 17.49457398716504 10.97246675292954  17.386041595982352 10.370938896484404  16.799059750279095 9.975587133789093  L 3.493122099609309 1.0028852001951236  C 2.7674780022323375 0.513892634277363  1.6236440959820355 0.5370834057616473  0.936553271484172 1.0536092187502013  C 0.2506935686381894 1.5709665844725047  0.2820545507810948 2.386477795410095  1.0076986481584755 2.876348105468757  L 12.946776554129656 10.928672224121268  L 1.054675333426485 19.10046112304696  C 0.3362883147320645 19.594581525878827  0.31458182896212744 20.41013892822257  1.0076986481584755 20.923200009765516  C 1.362064909318997 21.186151894531243  1.8357843540737122 21.31767402832026  2.3095037988280183 21.31767402832026  C 2.7615167954797926 21.31767402832026  3.2135297544641617 21.19737769531266  3.564267476283612 20.956738837890647  L 16.74968560965408 11.896355490722756  C 16.775020634765497 11.878292556152246  16.784610343192117 11.853392514648233  16.809945368303534 11.83449805419923  C 16.82925439871647 11.821609174804568  16.84972976283493 11.812138835449028  16.868974005301514 11.798418403320284  Z " fill-rule="nonzero" fill="#999999" stroke="none" transform="matrix(1 0 0 1 1366 880 )" />
    <path d="M 16.868974005301514 11.798418403320284  C 16.971415613839373 11.721870380859551  17.02564937779034 11.628183386230619  17.09556367047976 11.54054813720692  C 17.114872700892693 11.513892607421774  17.14616889508925 11.491579580078056  17.163080507812584 11.46404633300793  C 17.49457398716504 10.97246675292954  17.386041595982352 10.370938896484404  16.799059750279095 9.975587133789093  L 3.493122099609309 1.0028852001951236  C 2.7674780022323375 0.513892634277363  1.6236440959820355 0.5370834057616473  0.936553271484172 1.0536092187502013  C 0.2506935686381894 1.5709665844725047  0.2820545507810948 2.386477795410095  1.0076986481584755 2.876348105468757  L 12.946776554129656 10.928672224121268  L 1.054675333426485 19.10046112304696  C 0.3362883147320645 19.594581525878827  0.31458182896212744 20.41013892822257  1.0076986481584755 20.923200009765516  C 1.362064909318997 21.186151894531243  1.8357843540737122 21.31767402832026  2.3095037988280183 21.31767402832026  C 2.7615167954797926 21.31767402832026  3.2135297544641617 21.19737769531266  3.564267476283612 20.956738837890647  L 16.74968560965408 11.896355490722756  C 16.775020634765497 11.878292556152246  16.784610343192117 11.853392514648233  16.809945368303534 11.83449805419923  C 16.82925439871647 11.821609174804568  16.84972976283493 11.812138835449028  16.868974005301514 11.798418403320284  Z " stroke-width="2" stroke="#797979" fill="none" transform="matrix(1 0 0 1 1366 880 )" mask="url(#clip24)" />
  </g>
</svg>