<?xml version="1.0" encoding="utf-8"?>
<svg version="1.1" xmlns:xlink="http://www.w3.org/1999/xlink" width="13px" height="13px" viewBox="595 508  13 13" xmlns="http://www.w3.org/2000/svg">
  <path d="M 601.5 509  C 604.58 509  607 511.42  607 514.5  C 607 517.58  604.58 520  601.5 520  C 598.42 520  596 517.58  596 514.5  C 596 511.42  598.42 509  601.5 509  Z " fill-rule="nonzero" fill="#ffffff" stroke="none" />
  <path d="M 601.5 509  C 604.58 509  607 511.42  607 514.5  C 607 517.58  604.58 520  601.5 520  C 598.42 520  596 517.58  596 514.5  C 596 511.42  598.42 509  601.5 509  Z " stroke-width="2" stroke="#0099cc" fill="none" />
  <path d="M 601.5 517.75  C 599.68 517.75  598.25 516.32  598.25 514.5  C 598.25 512.68  599.68 511.25  601.5 511.25  C 603.32 511.25  604.75 512.68  604.75 514.5  C 604.75 516.32  603.32 517.75  601.5 517.75  " fill-rule="nonzero" fill="#0099cc" stroke="none" />
</svg>