<?xml version="1.0" encoding="utf-8"?>
<svg version="1.1" xmlns:xlink="http://www.w3.org/1999/xlink" width="28px" height="28px" xmlns="http://www.w3.org/2000/svg">
  <g transform="matrix(1 0 0 1 -1036 -793 )">
    <path d="M 1050 794  C 1057.28 794  1063 799.72  1063 807  C 1063 814.28  1057.28 820  1050 820  C 1042.72 820  1037 814.28  1037 807  C 1037 799.72  1042.72 794  1050 794  Z " fill-rule="nonzero" fill="#ffffff" stroke="none" fill-opacity="0" />
    <path d="M 1050 794  C 1057.28 794  1063 799.72  1063 807  C 1063 814.28  1057.28 820  1050 820  C 1042.72 820  1037 814.28  1037 807  C 1037 799.72  1042.72 794  1050 794  Z " stroke-width="2" stroke="#00ff3e" fill="none" />
  </g>
</svg>