<?xml version="1.0" encoding="utf-8"?>
<svg version="1.1" xmlns:xlink="http://www.w3.org/1999/xlink" width="169px" height="160px" xmlns="http://www.w3.org/2000/svg">
  <defs>
    <mask fill="white" id="clip15">
      <path d="M 1065 709  C 1020.6 709  985 673.4  985 629  L 985 629  C 985 584.6  1020.6 549  1065 549  L 1074 549  C 1118.4 549  1154 584.6  1154 629  L 1154 629  C 1154 673.4  1118.4 709  1074 709  " fill-rule="evenodd" />
    </mask>
  </defs>
  <g transform="matrix(1 0 0 1 -985 -549 )">
    <path d="M 985 549  L 1154 549  L 1154 709  L 985 709  L 985 549  " fill-rule="nonzero" fill="#cccccc" stroke="none" mask="url(#clip15)" />
    <path d="M 996 560  L 1143 560  L 1143 698  L 996 698  L 996 560  " fill-rule="nonzero" fill="#ffffff" stroke="none" mask="url(#clip15)" />
    <path d="M 1084.88 597  C 1078.16 597  1072.88 591.72  1072.88 585  C 1072.88 578.28  1078.16 573  1084.88 573  C 1091.6000000000001 573  1096.88 578.28  1096.88 585  C 1096.88 591.72  1091.6000000000001 597  1084.88 597  " fill-rule="nonzero" fill="#cccccc" stroke="none" mask="url(#clip15)" />
    <path d="M 1000 694  L 1000 622.5  L 1034.75 590  L 1083.4 620.1538461538462  L 1111.2 609.5  L 1139 620.1538461538462  L 1139 694  L 1000 694  " fill-rule="nonzero" fill="#169bd5" stroke="none" mask="url(#clip15)" />
  </g>
</svg>