<?xml version="1.0" encoding="utf-8"?>
<svg version="1.1" xmlns:xlink="http://www.w3.org/1999/xlink" width="24px" height="24px" xmlns="http://www.w3.org/2000/svg">
  <g transform="matrix(1 0 0 1 -332 -25 )">
    <path d="M 14.82812500000001 14.828125  C 15.609375 14.046874999999998  16.00000000000001 13.104166666666666  16.00000000000001 12  C 16.00000000000001 10.895833333333332  15.609375 9.953125  14.82812500000001 9.171875  C 14.04687499999999 8.390625  13.104166666666675 8  12 8  C 10.895833333333327 8  9.95312500000001 8.390625  9.17187499999999 9.171875  C 8.390625 9.953125  7.99999999999999 10.895833333333332  7.99999999999999 12  C 7.99999999999999 13.104166666666666  8.390625 14.046874999999998  9.17187499999999 14.828125  C 9.95312500000001 15.609375  10.895833333333327 16  12 16  C 13.104166666666675 16  14.04687499999999 15.609375  14.82812500000001 14.828125  Z M 23.87500000000001 9.9296875  C 23.958333333333346 10.0390625  24 10.161458333333334  24 10.296875  L 24 13.765624999999998  C 24 13.890625000000002  23.958333333333346 14.010416666666668  23.87500000000001 14.125000000000002  C 23.791666666666675 14.23958333333333  23.68750000000001 14.307291666666664  23.56249999999999 14.328124999999998  L 20.671875 14.765625  C 20.473958333333336 15.328125  20.270833333333325 15.802083333333332  20.0625 16.1875  C 20.427083333333336 16.708333333333336  20.98437499999999 17.42708333333333  21.73437499999999 18.34375  C 21.838541666666654 18.46875  21.890625 18.598958333333336  21.890625 18.734375  C 21.890625 18.869791666666668  21.84375 18.989583333333332  21.75 19.09375  C 21.46875 19.479166666666668  20.953125 20.041666666666668  20.203125 20.78125  C 19.453125 21.520833333333332  18.963541666666675 21.890625  18.73437499999999 21.890625  C 18.609375 21.890625  18.473958333333346 21.84375  18.328125 21.75  L 16.171875 20.0625  C 15.713541666666664 20.302083333333332  15.239583333333346 20.5  14.74999999999999 20.65625  C 14.583333333333346 22.072916666666668  14.432291666666654 23.041666666666668  14.296875 23.5625  C 14.223958333333325 23.854166666666668  14.036458333333325 24  13.734375 24  L 10.265625 24  C 10.119791666666654 24  9.99218749999999 23.955729166666668  9.88281250000001 23.8671875  C 9.7734375 23.778645833333332  9.713541666666663 23.666666666666668  9.703125 23.53125  L 9.26562499999999 20.65625  C 8.755208333333337 20.489583333333332  8.286458333333337 20.296875  7.85937499999999 20.078125  L 5.65624999999999 21.75  C 5.552083333333327 21.84375  5.42187499999999 21.890625  5.26562500000001 21.890625  C 5.119791666666663 21.890625  4.989583333333327 21.833333333333332  4.875 21.71875  C 3.5625 20.53125  2.7031249999999902 19.65625  2.296875 19.09375  C 2.223958333333327 18.989583333333332  2.1874999999999902 18.869791666666668  2.1874999999999902 18.734375  C 2.1874999999999902 18.609375  2.229166666666673 18.489583333333332  2.3125000000000098 18.375  C 2.4687499999999902 18.15625  2.7343750000000098 17.809895833333336  3.1093750000000098 17.3359375  C 3.4843750000000098 16.861979166666664  3.7656250000000098 16.494791666666664  3.9531250000000098 16.234375  C 3.6718750000000098 15.713541666666664  3.4583333333333366 15.197916666666664  3.3124999999999902 14.687500000000002  L 0.4531249999999901 14.265625000000002  C 0.3177083333333366 14.244791666666668  0.2083333333333267 14.1796875  0.1249999999999901 14.070312499999998  C 0.04166666666665349 13.960937500000002  0 13.838541666666664  0 13.703125000000002  L 0 10.234375  C 0 10.109375  0.04166666666665349 9.989583333333332  0.1249999999999901 9.875  C 0.2083333333333267 9.760416666666668  0.3072916666666733 9.692708333333332  0.421875 9.671875  L 3.328125 9.234375  C 3.473958333333347 8.755208333333332  3.677083333333327 8.276041666666666  3.9375 7.796875  C 3.520833333333347 7.203125  2.9635416666666634 6.484375  2.2656250000000098 5.640625  C 2.1614583333333464 5.515625  2.109375 5.390625  2.109375 5.265625  C 2.109375 5.161458333333332  2.15625 5.041666666666664  2.25 4.906250000000001  C 2.5208333333333366 4.531250000000001  3.0338541666666634 3.9713541666666634  3.7890625000000098 3.226562499999999  C 4.544270833333327 2.481770833333332  5.036458333333327 2.109375  5.26562500000001 2.109375  C 5.401041666666663 2.109375  5.536458333333346 2.1614583333333317  5.671875 2.2656249999999987  L 7.828125 3.9375  C 8.286458333333337 3.697916666666666  8.760416666666654 3.500000000000001  9.25000000000001 3.343749999999999  C 9.416666666666654 1.9270833333333317  9.567708333333346 0.9583333333333319  9.703125 0.43749999999999895  C 9.776041666666673 0.14583333333333187  9.963541666666673 0  10.265625 0  L 13.734375 0  C 13.880208333333346 0  14.00781250000001 0.04427083333333078  14.11718749999999 0.1328124999999989  C 14.2265625 0.22135416666666374  14.286458333333336 0.33333333333333187  14.296875 0.46875  L 14.73437500000001 3.343749999999999  C 15.244791666666664 3.510416666666666  15.713541666666664 3.703125  16.14062500000001 3.921875000000001  L 18.35937499999999 2.25  C 18.45312499999999 2.15625  18.57812500000001 2.109375  18.73437499999999 2.109375  C 18.869791666666675 2.109375  19.00000000000001 2.1614583333333317  19.125 2.2656249999999987  C 20.46874999999999 3.505208333333333  21.328125 4.390625000000001  21.703125 4.921875  C 21.776041666666675 5.005208333333332  21.81250000000001 5.119791666666663  21.81250000000001 5.265625  C 21.81250000000001 5.390625  21.770833333333325 5.510416666666664  21.68749999999999 5.625  C 21.53125000000001 5.84375  21.26562499999999 6.190104166666663  20.89062499999999 6.6640625  C 20.51562499999999 7.138020833333332  20.23437499999999 7.505208333333332  20.04687499999999 7.765625  C 20.317708333333325 8.286458333333332  20.53125 8.796874999999998  20.68750000000001 9.296875  L 23.54687500000001 9.734375  C 23.682291666666664 9.755208333333332  23.791666666666675 9.820312499999996  23.87500000000001 9.9296875  Z " fill-rule="nonzero" fill="#000000" stroke="none" transform="matrix(1 0 0 1 332 25 )" />
  </g>
</svg>