<?xml version="1.0" encoding="utf-8"?>
<svg version="1.1" xmlns:xlink="http://www.w3.org/1999/xlink" width="62px" height="20px" xmlns="http://www.w3.org/2000/svg">
  <defs>
    <mask fill="white" id="clip62">
      <path d="M 0 16.666666666666668  L 0 3.333333333333333  C 0 1.466666666666697  1.4061855670103018 0  3.1958762886597936 0  L 17.946074544013133 0  L 27.779540047581715 0  L 58.8041237113402 0  C 60.59381443298966 0  62 1.466666666666697  62 3.333333333333333  L 62 16.666666666666668  C 62 18.533333333333303  60.59381443298966 20  58.8041237113402 20  L 3.1958762886597936 20  C 1.4061855670103018 20  0 18.533333333333303  0 16.666666666666668  Z " fill-rule="evenodd" />
    </mask>
  </defs>
  <g transform="matrix(1 0 0 1 -500 -620 )">
    <path d="M 0 16.666666666666668  L 0 3.333333333333333  C 0 1.466666666666697  1.4061855670103018 0  3.1958762886597936 0  L 17.946074544013133 0  L 27.779540047581715 0  L 58.8041237113402 0  C 60.59381443298966 0  62 1.466666666666697  62 3.333333333333333  L 62 16.666666666666668  C 62 18.533333333333303  60.59381443298966 20  58.8041237113402 20  L 3.1958762886597936 20  C 1.4061855670103018 20  0 18.533333333333303  0 16.666666666666668  Z " fill-rule="nonzero" fill="#ffffff" stroke="none" transform="matrix(1 0 0 1 500 620 )" />
    <path d="M 0 16.666666666666668  L 0 3.333333333333333  C 0 1.466666666666697  1.4061855670103018 0  3.1958762886597936 0  L 17.946074544013133 0  L 27.779540047581715 0  L 58.8041237113402 0  C 60.59381443298966 0  62 1.466666666666697  62 3.333333333333333  L 62 16.666666666666668  C 62 18.533333333333303  60.59381443298966 20  58.8041237113402 20  L 3.1958762886597936 20  C 1.4061855670103018 20  0 18.533333333333303  0 16.666666666666668  Z " stroke-width="2" stroke="#797979" fill="none" transform="matrix(1 0 0 1 500 620 )" mask="url(#clip62)" />
  </g>
</svg>