<?xml version="1.0" encoding="utf-8"?>
<svg version="1.1" xmlns:xlink="http://www.w3.org/1999/xlink" width="80px" height="20px" xmlns="http://www.w3.org/2000/svg">
  <defs>
    <mask fill="white" id="clip64">
      <path d="M 0 16.666666666666668  L 0 3.333333333333333  C 0 1.466666666666697  1.814432989690712 0  4.123711340206185 0  L 23.156225218081463 0  L 35.844567803331245 0  L 75.87628865979381 0  C 78.18556701030924 0  80 1.466666666666697  80 3.333333333333333  L 80 16.666666666666668  C 80 18.533333333333303  78.18556701030924 20  75.87628865979381 20  L 4.123711340206185 20  C 1.814432989690712 20  0 18.533333333333303  0 16.666666666666668  Z " fill-rule="evenodd" />
    </mask>
  </defs>
  <g transform="matrix(1 0 0 1 -920 -1256 )">
    <path d="M 0 16.666666666666668  L 0 3.333333333333333  C 0 1.466666666666697  1.814432989690712 0  4.123711340206185 0  L 23.156225218081463 0  L 35.844567803331245 0  L 75.87628865979381 0  C 78.18556701030924 0  80 1.466666666666697  80 3.333333333333333  L 80 16.666666666666668  C 80 18.533333333333303  78.18556701030924 20  75.87628865979381 20  L 4.123711340206185 20  C 1.814432989690712 20  0 18.533333333333303  0 16.666666666666668  Z " fill-rule="nonzero" fill="#ffffff" stroke="none" transform="matrix(1 0 0 1 920 1256 )" />
    <path d="M 0 16.666666666666668  L 0 3.333333333333333  C 0 1.466666666666697  1.814432989690712 0  4.123711340206185 0  L 23.156225218081463 0  L 35.844567803331245 0  L 75.87628865979381 0  C 78.18556701030924 0  80 1.466666666666697  80 3.333333333333333  L 80 16.666666666666668  C 80 18.533333333333303  78.18556701030924 20  75.87628865979381 20  L 4.123711340206185 20  C 1.814432989690712 20  0 18.533333333333303  0 16.666666666666668  Z " stroke-width="2" stroke="#797979" fill="none" transform="matrix(1 0 0 1 920 1256 )" mask="url(#clip64)" />
  </g>
</svg>