<?xml version="1.0" encoding="utf-8"?>
<svg version="1.1" xmlns:xlink="http://www.w3.org/1999/xlink" width="86px" height="20px" xmlns="http://www.w3.org/2000/svg">
  <defs>
    <mask fill="white" id="clip32">
      <path d="M 0 16.666666666666668  L 0 3.333333333333333  C 0 1.466666666666697  1.9505154639175155 0  4.432989690721649 0  L 24.892942109437573 0  L 38.53291038858109 0  L 81.56701030927834 0  C 84.04948453608243 0  86 1.466666666666697  86 3.333333333333333  L 86 16.666666666666668  C 86 18.533333333333303  84.04948453608243 20  81.56701030927834 20  L 4.432989690721649 20  C 1.9505154639175155 20  0 18.533333333333303  0 16.666666666666668  Z " fill-rule="evenodd" />
    </mask>
  </defs>
  <g transform="matrix(1 0 0 1 -665 -620 )">
    <path d="M 0 16.666666666666668  L 0 3.333333333333333  C 0 1.466666666666697  1.9505154639175155 0  4.432989690721649 0  L 24.892942109437573 0  L 38.53291038858109 0  L 81.56701030927834 0  C 84.04948453608243 0  86 1.466666666666697  86 3.333333333333333  L 86 16.666666666666668  C 86 18.533333333333303  84.04948453608243 20  81.56701030927834 20  L 4.432989690721649 20  C 1.9505154639175155 20  0 18.533333333333303  0 16.666666666666668  Z " fill-rule="nonzero" fill="#ffffff" stroke="none" transform="matrix(1 0 0 1 665 620 )" />
    <path d="M 0 16.666666666666668  L 0 3.333333333333333  C 0 1.466666666666697  1.9505154639175155 0  4.432989690721649 0  L 24.892942109437573 0  L 38.53291038858109 0  L 81.56701030927834 0  C 84.04948453608243 0  86 1.466666666666697  86 3.333333333333333  L 86 16.666666666666668  C 86 18.533333333333303  84.04948453608243 20  81.56701030927834 20  L 4.432989690721649 20  C 1.9505154639175155 20  0 18.533333333333303  0 16.666666666666668  Z " stroke-width="2" stroke="#797979" fill="none" transform="matrix(1 0 0 1 665 620 )" mask="url(#clip32)" />
  </g>
</svg>