<?xml version="1.0" encoding="utf-8"?>
<svg version="1.1" xmlns:xlink="http://www.w3.org/1999/xlink" width="240px" height="60px" xmlns="http://www.w3.org/2000/svg">
  <defs>
    <mask fill="white" id="clip209">
      <path d="M 0 9  L 9 0  L 76.06557377049 0  L 231 0  L 240 9  L 240 51  L 231 60  L 9 60  L 0 51  L 0 9  Z " fill-rule="evenodd" />
    </mask>
  </defs>
  <g transform="matrix(1 0 0 1 -580 -450 )">
    <path d="M 0 9  L 9 0  L 76.06557377049 0  L 231 0  L 240 9  L 240 51  L 231 60  L 9 60  L 0 51  L 0 9  Z " fill-rule="nonzero" fill="#ffffff" stroke="none" transform="matrix(1 0 0 1 580 450 )" />
    <path d="M 0 9  L 9 0  L 76.06557377049 0  L 231 0  L 240 9  L 240 51  L 231 60  L 9 60  L 0 51  L 0 9  Z " stroke-width="4" stroke="#797979" fill="none" transform="matrix(1 0 0 1 580 450 )" mask="url(#clip209)" />
  </g>
</svg>