<?xml version="1.0" encoding="utf-8"?>
<svg version="1.1" xmlns:xlink="http://www.w3.org/1999/xlink" width="169px" height="160px" xmlns="http://www.w3.org/2000/svg">
  <defs>
    <mask fill="white" id="clip7">
      <path d="M 140 219  C 95.6 219  60 183.4  60 139  L 60 139  C 60 94.6  95.6 59  140 59  L 149 59  C 193.4 59  229 94.6  229 139  L 229 139  C 229 183.4  193.4 219  149 219  " fill-rule="evenodd" />
    </mask>
  </defs>
  <g transform="matrix(1 0 0 1 -60 -59 )">
    <path d="M 60 59  L 229 59  L 229 219  L 60 219  L 60 59  " fill-rule="nonzero" fill="#cccccc" stroke="none" mask="url(#clip7)" />
    <path d="M 71 70  L 218 70  L 218 208  L 71 208  L 71 70  " fill-rule="nonzero" fill="#ffffff" stroke="none" mask="url(#clip7)" />
    <path d="M 159.88 107  C 153.16 107  147.88 101.72  147.88 95  C 147.88 88.28  153.16 83  159.88 83  C 166.6 83  171.88 88.28  171.88 95  C 171.88 101.72  166.6 107  159.88 107  " fill-rule="nonzero" fill="#cccccc" stroke="none" mask="url(#clip7)" />
    <path d="M 75 204  L 75 132.5  L 109.75 100  L 158.39999999999998 130.15384615384616  L 186.2 119.5  L 214 130.15384615384616  L 214 204  L 75 204  " fill-rule="nonzero" fill="#169bd5" stroke="none" mask="url(#clip7)" />
  </g>
</svg>